<svg xmlns="http://www.w3.org/2000/svg" width="224.999" height="284.999" viewBox="0 0 224.999 284.999">
  <defs>
    <style>
      .cls-1 {
        fill: #3f3d56;
      }

      .cls-2 {
        fill: #fbbebe;
      }

      .cls-3 {
        fill: #3c354c;
      }

      .cls-4 {
        opacity: 0.1;
      }

      .cls-5 {
        fill: #f2f2f2;
      }

      .cls-6 {
        fill: #ef4647;
      }

      .cls-7 {
        fill: #a0616a;
      }

      .cls-8 {
        fill: none;
        stroke: #3f3d56;
        stroke-miterlimit: 10;
        stroke-width: 4px;
      }

      .cls-9 {
        fill: #57b894;
      }

      .cls-10 {
        fill: #656380;
      }

      .cls-11 {
        opacity: 0.2;
      }
    </style>
  </defs>
  <g id="undraw_travelers_qlt1" transform="translate(0 -0.005)">
    <ellipse id="Ellipse_63" data-name="Ellipse 63" class="cls-1" cx="17.047" cy="13.296" rx="17.047" ry="13.296" transform="translate(71.625 3.19)"/>
    <circle id="Ellipse_64" data-name="Ellipse 64" class="cls-1" cx="24.548" cy="24.548" r="24.548" transform="translate(97.568 36.94)"/>
    <circle id="Ellipse_65" data-name="Ellipse 65" class="cls-1" cx="6.135" cy="6.135" r="6.135" transform="translate(192.272 262.251)"/>
    <circle id="Ellipse_66" data-name="Ellipse 66" class="cls-1" cx="6.135" cy="6.135" r="6.135" transform="translate(161.105 262.251)"/>
    <rect id="Rectangle_139" data-name="Rectangle 139" class="cls-1" width="2.728" height="75.349" transform="translate(173.966 124.789)"/>
    <rect id="Rectangle_140" data-name="Rectangle 140" class="cls-1" width="2.728" height="75.349" transform="translate(187.838 124.789)"/>
    <path id="Path_79" data-name="Path 79" class="cls-1" d="M746.093,407.227l-.683-2.045s7.5-8.863,18.069-1.718l-.683,3.072h-2.728s-4.429-3.716-11.93.528Z" transform="translate(-572.247 -278.697)"/>
    <rect id="Rectangle_141" data-name="Rectangle 141" class="cls-2" width="24.548" height="31.366" transform="translate(105.178 115.556)"/>
    <rect id="Rectangle_142" data-name="Rectangle 142" class="cls-2" width="7.501" height="15.002" transform="translate(138.86 107.316)"/>
    <path id="Path_80" data-name="Path 80" class="cls-3" d="M586.364,740.393,583.3,749.6s-1.366,6.818,3.067,7.157,11.6-1.022,11.6-1.022a9.832,9.832,0,0,0,0-5.8c-1.022-2.728-4.09-10.229-4.09-10.229Z" transform="translate(-477.864 -478.142)"/>
    <path id="Path_81" data-name="Path 81" class="cls-3" d="M641.393,742.09s-4.773,11.935-1.022,13.98,8.867.339,12.957,2.045,15.341-2.384,15.341-2.384,1.366-3.75-6.135-4.773c0,0-8.163-6.139-8.163-7.5s-4.773-1.366-4.773-1.366Z" transform="translate(-510.281 -479.5)"/>
    <path id="Path_82" data-name="Path 82" class="cls-1" d="M591.349,424.566s-27.955,5.8-31.361,4.09-6.818,23.2-6.818,23.2-1.366,15,3.407,35.116,0,30,0,30,.683,19.092,5.8,27.959a37.574,37.574,0,0,1,5.112,17.047s9.881,1.022,10.229-1.366c0,0-4.094-9.546-3.411-18.409s-2.045-25.914-2.045-25.914,4.433-21.48,3.75-29.643,2.389-25.57,4.09-22.5,6.139,18.069,6.139,21.141,1.718,23.521,2.728,24.887.679,5.456.339,7.5-.339,17.386,1.362,25.57.344,17.386.683,18.752,10.229.339,10.568-2.049c0,0,1.366-14.658,2.049-16.7s1.005-27.993,1.005-27.993.679-20.114,1.362-22.159,1.719-46.028-2.728-51.123-2.728-18.069-2.728-18.069Z" transform="translate(-460.824 -298.007)"/>
    <path id="Path_83" data-name="Path 83" class="cls-2" d="M583.369,274.376a42.445,42.445,0,0,0-3.325,7.363,14.134,14.134,0,0,0-.322,7.973,19.756,19.756,0,0,0,2.2,4.6,15.769,15.769,0,0,0,2.779,3.712c2.578,2.354,6.324,2.827,9.8,3.2a4.965,4.965,0,0,0,1.8-.03,3.4,3.4,0,0,0,1.289-.7,10.235,10.235,0,0,0,2.775-5.155,85.065,85.065,0,0,0,2.844-13.808,6.4,6.4,0,0,0,0-2.234c-.3-1.289-1.332-2.29-2.079-3.4a8.665,8.665,0,0,1-1.478-4.468,3.645,3.645,0,0,0-.49-2.23,3.009,3.009,0,0,0-1.156-.713c-2.032-.859-4.06-1.718-6.1-2.543-1.229-.507-3.437-1.856-4.726-.859-1.1.859-.571,2.853-1.044,4.047A56.766,56.766,0,0,1,583.369,274.376Z" transform="translate(-475.739 -199.26)"/>
    <path id="Path_84" data-name="Path 84" class="cls-4" d="M583.369,274.376a42.445,42.445,0,0,0-3.325,7.363,14.134,14.134,0,0,0-.322,7.973,19.756,19.756,0,0,0,2.2,4.6,15.769,15.769,0,0,0,2.779,3.712c2.578,2.354,6.324,2.827,9.8,3.2a4.965,4.965,0,0,0,1.8-.03,3.4,3.4,0,0,0,1.289-.7,10.235,10.235,0,0,0,2.775-5.155,85.065,85.065,0,0,0,2.844-13.808,6.4,6.4,0,0,0,0-2.234c-.3-1.289-1.332-2.29-2.079-3.4a8.665,8.665,0,0,1-1.478-4.468,3.645,3.645,0,0,0-.49-2.23,3.009,3.009,0,0,0-1.156-.713c-2.032-.859-4.06-1.718-6.1-2.543-1.229-.507-3.437-1.856-4.726-.859-1.1.859-.571,2.853-1.044,4.047A56.766,56.766,0,0,1,583.369,274.376Z" transform="translate(-475.739 -199.26)"/>
    <circle id="Ellipse_67" data-name="Ellipse 67" class="cls-2" cx="11.935" cy="11.935" r="11.935" transform="translate(109.033 52.665)"/>
    <path id="Path_85" data-name="Path 85" class="cls-5" d="M597.929,327.679a19.052,19.052,0,0,1-12.343,1.027,67.919,67.919,0,0,1-10.646-3.037,11.418,11.418,0,0,0-1,4.751c-.185,4.936.8,9.834,1.177,14.761.477,6.264,0,12.665,1.611,18.731a5.158,5.158,0,0,1,1.151-2.81,6.376,6.376,0,0,1,1.929-1.418,15.38,15.38,0,0,1,10.56-1.315c2.066.49,4.262,1.4,6.221.584a6.046,6.046,0,0,0,2.664-2.625,21.574,21.574,0,0,0,2.329-6.311c1.289-5.688,1.461-11.569,1.615-17.4.043-1.559.713-6.195-.58-7.338-.907-.795-1.173.339-1.826.932A8.348,8.348,0,0,1,597.929,327.679Z" transform="translate(-472.685 -234.762)"/>
    <path id="Path_86" data-name="Path 86" class="cls-6" d="M564.933,283.023a2.572,2.572,0,0,0-2.848.1c-.877.528-1.585,1.259-2.475,1.74-2.466,1.336-5.778.357-8.12,1.912-2.2,1.465-2.578,4.481-2.75,7.119-.43,6.7-.8,13.451-2.41,19.973a15.919,15.919,0,0,0-.782,5.25,13.938,13.938,0,0,0,.713,2.964l2.114,6.6a34.947,34.947,0,0,1,2.075,9.4,34.517,34.517,0,0,1-1.4,9.348,109.646,109.646,0,0,0-2.891,18.435,12.956,12.956,0,0,0,.644,6.092,10.6,10.6,0,0,0,4.442,4.549c1.839,1.113,3.836,1.972,5.636,3.153,3.613,2.376,6.513,6.118,10.74,7.093a14.607,14.607,0,0,0,5.916-.12s-1.1-50.144-4.176-57.305-5.8-38.184-5.8-39.206S564.933,283.023,564.933,283.023Z" transform="translate(-456.253 -210.921)"/>
    <path id="Path_87" data-name="Path 87" class="cls-6" d="M624.024,287.36s16.132,0,18.521,8.523-6.818,22.5-6.818,22.5,3.75,27.615,5.452,30.343,1.027,8.163,1.027,8.163a22.559,22.559,0,0,1,.679,11.6c-1.362,6.135-6.479,17.047-6.479,17.047s-6.818,0-8.523,4.09-2.045-17.73-2.045-17.73-6.135-39.889-5.8-42.273,2.045-22.163,2.728-27.619S624.939,289.4,624.024,287.36Z" transform="translate(-499.279 -213.695)"/>
    <path id="Path_88" data-name="Path 88" class="cls-6" d="M654.391,300.06s7.845,2.384,7.845,5.112,2.4,17.386,2.4,22.159-1.023,5.456,0,7.162-10.908,1.022-10.908,1.022l-2.17-19.431Z" transform="translate(-517.39 -220.039)"/>
    <path id="Path_89" data-name="Path 89" class="cls-7" d="M548.412,355.177s15.345,1.022,18.073-1.027,14.319,2.728,15.341,5.456-16.368,3.067-19.092,3.067-15.685,4.094-15.685,4.094Z" transform="translate(-457.196 -251.212)"/>
    <path id="Path_90" data-name="Path 90" class="cls-1" d="M470.706,724.893s-7.153,18.044-3.437,20.192,42.9.619,42.9.619,6.526-4.038-.932-6.839c0,0-6.221-.309-10.259-2.8a59.815,59.815,0,0,1-8.708-7.149s-.309-6.839-2.8-5.284a6.383,6.383,0,0,0-2.8,4.352Z" transform="translate(-410.5 -468.842)"/>
    <path id="Path_91" data-name="Path 91" class="cls-4" d="M470.706,724.893s-7.153,18.044-3.437,20.192,42.9.619,42.9.619,6.526-4.038-.932-6.839c0,0-6.221-.309-10.259-2.8a59.815,59.815,0,0,1-8.708-7.149s-.309-6.839-2.8-5.284a6.383,6.383,0,0,0-2.8,4.352Z" transform="translate(-410.5 -468.842)"/>
    <path id="Path_92" data-name="Path 92" class="cls-1" d="M444.452,737.55s-7.84,19.762-3.751,22.159,47.051.683,47.051.683,7.162-4.429-1.022-7.5c0,0-6.818-.339-11.251-3.067a64.875,64.875,0,0,1-9.546-7.853s-.339-7.5-3.067-5.8a6.994,6.994,0,0,0-3.067,4.773Z" transform="translate(-395.078 -475.982)"/>
    <path id="Path_93" data-name="Path 93" class="cls-3" d="M507.532,436.371l-4.773,42.961s-1.718,20.458-6.818,24.887c0,0,0,6.479-1.718,8.524l-2.389,26.936s3.411,9.881,3.072,11.6,1.362,7.157,1.022,7.84-16.368,0-16.368,0l3.411-54.891,10.568-76.367Z" transform="translate(-418.12 -300.266)"/>
    <path id="Path_94" data-name="Path 94" class="cls-4" d="M507.532,436.371l-4.773,42.961s-1.718,20.458-6.818,24.887c0,0,0,6.479-1.718,8.524l-2.389,26.936s3.411,9.881,3.072,11.6,1.362,7.157,1.022,7.84-16.368,0-16.368,0l3.411-54.891,10.568-76.367Z" transform="translate(-418.12 -300.266)"/>
    <path id="Path_95" data-name="Path 95" class="cls-3" d="M475.514,432.7s-3.75,35.116-5.456,42.617a96.8,96.8,0,0,0-2.045,15s-.339,10.912-3.411,13.979a9.206,9.206,0,0,0-2.724,6.809s-3.072,34.433-1.366,38.527,3.411,7.5,1.718,10.225-20.458,2.728-20.458.683,0-3.75-1.022-4.773,0-7.5,0-7.5-4.09-30.343-.339-39.206,5.456-33.08,5.456-33.08-2.728-27.615-6.139-32.049.683-20.114.683-20.114Z" transform="translate(-394.346 -297.961)"/>
    <path id="Path_96" data-name="Path 96" class="cls-7" d="M502.49,177.629a4.587,4.587,0,0,0,2.208,1.882c5,2.758,9.194,6.758,13.318,10.71a15.65,15.65,0,0,1,.623-10.581c.49-1.138,1.138-2.367.786-3.557a4.577,4.577,0,0,0-1.718-2.071,53.537,53.537,0,0,0-5.271-3.6c-1.289-.765-3.9-2.8-5.366-2.578a13.486,13.486,0,0,1-.984,5.585C505.871,173.878,502.64,177.973,502.49,177.629Z" transform="translate(-431.309 -141.148)"/>
    <circle id="Ellipse_68" data-name="Ellipse 68" class="cls-7" cx="13.979" cy="13.979" r="13.979" transform="translate(74.51 12.904)"/>
    <path id="Path_97" data-name="Path 97" class="cls-1" d="M478.642,212.251s2.384-11.934-4.433-16.024-14.658-8.863-14.658-8.863-2.389-.344-3.411,4.773c0,0-19.431,3.75-21.48,22.159s1.366,45.345,1.366,45.345-3.067,23.525-6.818,36.139c0,0-3.072,2.728,10.568-1.362s37.5,11.6,37.5,11.6,2.389-2.389,2.389-4.094,2.728-11.6,2.728-11.6,2.384-41.934,3.407-46.707S481.709,212.934,478.642,212.251Z" transform="translate(-388.962 -152.292)"/>
    <path id="Path_98" data-name="Path 98" class="cls-6" d="M466.95,241.709s18.748-10.912,15-24.891-11.93-18.409-11.93-18.409-13.3-4.434-24.548,9.881l.683,6.478s12.274-24.887,25.57-9.206S466.95,241.709,466.95,241.709Z" transform="translate(-398.452 -158.225)"/>
    <path id="Path_99" data-name="Path 99" class="cls-6" d="M403.853,223.651v55.9l-3.484,19.07-1.628,8.889H386.823l-16.7-6.139V260.134S384.1,232.514,388.529,227.4,403.853,223.651,403.853,223.651Z" transform="translate(-354.568 -175.478)"/>
    <path id="Path_100" data-name="Path 100" class="cls-4" d="M66.422,292.66,64.8,301.549H52.863l-16.7-6.135Z" transform="translate(-20.625 -171.658)"/>
    <path id="Path_101" data-name="Path 101" class="cls-6" d="M105.2,217.409l29.321-35.8-25.914,37.165-2.728.679Z" transform="translate(-60.825 -106.851)"/>
    <path id="Path_102" data-name="Path 102" class="cls-1" d="M515.1,134.067a5.828,5.828,0,0,1,2.745-.73,5.182,5.182,0,0,0,2.711-.808c1.319-1.014,1.418-2.973,2.384-4.326,1.4-1.963,4.184-2.2,6.594-2.105,1.474.06,3.059.15,4.3-.644a6.577,6.577,0,0,0,2.277-3.811c.511-1.718.838-3.815-.43-5.087-.859-.885-2.251-1.061-3.222-1.839a8.744,8.744,0,0,1-1.968-3.278,8.875,8.875,0,0,0-2.857-3.579,10.8,10.8,0,0,0-6.4-1.534,50.267,50.267,0,0,1-6.68.043c-1.813-.223-3.622-.825-5.426-.559a7.771,7.771,0,0,0-5.344,4.111,22.859,22.859,0,0,0-2.092,6.629l-1.289,6.2a16.479,16.479,0,0,0-.49,5.834c.636,4.021,4.193,7.217,4.438,11.277a6.921,6.921,0,0,1,4.227-5.022,1.336,1.336,0,0,1,.859-.107c.352.116.559.468.782.765.584.778,2.419,1.955,3.437,1.4C514.631,136.408,513.935,134.861,515.1,134.067Z" transform="translate(-429.885 -105.74)"/>
    <path id="Path_103" data-name="Path 103" class="cls-3" d="M728.235,575.333s-9.206.339-10.568,10.908,0,59.664,0,59.664,10.568,7.84,23.525,6.818,33.75-4.773,33.75-4.773V590.382a15.043,15.043,0,0,0-15.749-15.1,5.539,5.539,0,0,0-.614.047Z" transform="translate(-556.077 -384.337)"/>
    <circle id="Ellipse_69" data-name="Ellipse 69" class="cls-1" cx="6.135" cy="6.135" r="6.135" transform="translate(179.319 263.956)"/>
    <circle id="Ellipse_70" data-name="Ellipse 70" class="cls-1" cx="6.135" cy="6.135" r="6.135" transform="translate(212.729 261.228)"/>
    <path id="Path_104" data-name="Path 104" class="cls-7" d="M453.073,315.236s-2.389,15,7.5,13.636c0,0,5.117-.683,5.8,0s25.91-3.75,29.321-7.5c0,0,4.09-1.362,6.135.683s22.5,4.09,16.372-2.049-15.681-7.5-15.681-7.5l-12.957.679s-6.818,2.049-10.908,0-15.694-1.34-15.694-1.34Z" transform="translate(-402.879 -226.658)"/>
    <path id="Path_105" data-name="Path 105" class="cls-1" d="M465.571,209.59s-15.341,1.718-15.341,23.865v28.294s8.523-3.75,10.229-3.411,8.523-4.434,8.523-4.434,7.84-18.4,7.157-23.517S475.8,210.269,465.571,209.59Z" transform="translate(-401.154 -166.949)"/>
    <path id="Path_106" data-name="Path 106" class="cls-1" d="M295.131,231.61,279.79,242.522l9.546,1.022,13.3-11.251Z" transform="translate(-161.703 -135.889)"/>
    <path id="Path_107" data-name="Path 107" class="cls-2" d="M650.407,361.4s3.751,11.6-1.362,15-13.64-11.934-13.64-11.934-9.206-10.908-3.067-13.3,8.644,8.012,8.644,8.012l8.051,6.99Z" transform="translate(-505.154 -249.737)"/>
    <ellipse id="Ellipse_71" data-name="Ellipse 71" class="cls-1" cx="13.636" cy="8.695" rx="13.636" ry="8.695" transform="translate(108.502 47.306)"/>
    <circle id="Ellipse_72" data-name="Ellipse 72" class="cls-1" cx="9.885" cy="9.885" r="9.885" transform="translate(114.602 27.059)"/>
    <ellipse id="Ellipse_73" data-name="Ellipse 73" class="cls-1" cx="13.125" cy="6.818" rx="13.125" ry="6.818" transform="translate(75.361 11.374)"/>
    <ellipse id="Ellipse_74" data-name="Ellipse 74" class="cls-1" cx="4.601" cy="11.423" rx="4.601" ry="11.423" transform="translate(71.779 7.959)"/>
    <path id="Path_108" data-name="Path 108" class="cls-8" d="M347.788,709.34c1.289-2.367-.172-5.267-1.839-7.381s-3.7-4.3-3.66-7c.064-3.867,4.167-6.148,7.445-8.2a36.283,36.283,0,0,0,6.685-5.375,9.691,9.691,0,0,0,2.054-2.749,11.16,11.16,0,0,0,.619-4.889q-.215-8.275-.821-16.531" transform="translate(-338.693 -431.091)"/>
    <path id="Path_109" data-name="Path 109" class="cls-9" d="M378.037,648.885a6.014,6.014,0,0,0-3.007-4.941l-1.349,2.672.043-3.231a6.015,6.015,0,1,0,4.313,5.5Z" transform="translate(-352.226 -421.049)"/>
    <path id="Path_110" data-name="Path 110" class="cls-9" d="M353.918,739.862a6.014,6.014,0,1,1,.292-4.854l-3.768,3.063,4.146-.962A5.968,5.968,0,0,1,353.918,739.862Z" transform="translate(-338.847 -473.226)"/>
    <path id="Path_111" data-name="Path 111" class="cls-9" d="M353.622,708.257a6.015,6.015,0,0,1-6.3-5.744,5.936,5.936,0,0,1,.52-2.745,6.04,6.04,0,0,1,3.866-3.342l-.03,2.487,1.362-2.7h0a6.014,6.014,0,0,1,6.3,5.744,5.943,5.943,0,0,1-.258,2.058A6.015,6.015,0,0,1,353.622,708.257Z" transform="translate(-341.559 -453.327)"/>
    <path id="Path_112" data-name="Path 112" class="cls-9" d="M387.831,685.624a6.014,6.014,0,1,1,2.668-11.286l-1.065,2.921,2.191-2.105a6.015,6.015,0,0,1-3.793,10.47Z" transform="translate(-361.114 -440.433)"/>
    <path id="Path_113" data-name="Path 113" class="cls-4" d="M377.262,654.871c-1.388.155-2.745.589-4.141.674a4.493,4.493,0,0,1-3.811-1.336,18.265,18.265,0,0,1-1.117-1.959,4.318,4.318,0,0,0-1.517-1.43,6.015,6.015,0,1,0,11.269,4C377.717,654.833,377.49,654.85,377.262,654.871Z" transform="translate(-352.263 -425.448)"/>
    <path id="Path_114" data-name="Path 114" class="cls-4" d="M387.741,690.182a6.04,6.04,0,0,1-5.735-8.592,4.428,4.428,0,0,1,1.216,1.216,19.407,19.407,0,0,0,1.194,1.993,4.913,4.913,0,0,0,4,1.4c1.452-.069,2.861-.477,4.3-.61.2,0,.408-.034.61-.039A6.014,6.014,0,0,1,387.741,690.182Z" transform="translate(-361.023 -444.991)"/>
    <path id="Path_115" data-name="Path 115" class="cls-4" d="M353.622,712.989a6.015,6.015,0,0,1-6.3-5.744,5.936,5.936,0,0,1,.52-2.745,4.863,4.863,0,0,1,1.289,1.224c.468.662.76,1.422,1.289,2.032a5.569,5.569,0,0,0,4.27,1.495c1.542-.039,2.93-.4,4.412-.511a6.015,6.015,0,0,1-5.477,4.249Z" transform="translate(-341.559 -458.059)"/>
    <path id="Path_116" data-name="Path 116" class="cls-4" d="M353.71,744.979a6.02,6.02,0,1,1-10.989-4.919,6.123,6.123,0,0,1,1.323,1.177,24.519,24.519,0,0,0,1.611,2.148,7.509,7.509,0,0,0,5,1.757A26.728,26.728,0,0,0,353.71,744.979Z" transform="translate(-338.639 -478.342)"/>
    <path id="Path_117" data-name="Path 117" class="cls-10" d="M333.92,768.784s4.76-.146,6.195-1.169,7.3-2.242,7.677-.6,7.149,8.162,1.779,8.188-12.484-.838-13.915-1.718S333.92,768.784,333.92,768.784Z" transform="translate(-333.92 -493.259)"/>
    <path id="Path_118" data-name="Path 118" class="cls-11" d="M349.665,778.024c-5.374.043-12.484-.838-13.915-1.718-1.091-.662-1.525-3.046-1.671-4.146h-.159s.3,3.836,1.718,4.726,8.541,1.753,13.915,1.718c1.551,0,2.084-.563,2.058-1.383C351.409,777.706,350.821,778.015,349.665,778.024Z" transform="translate(-333.92 -496.652)"/>
  </g>
</svg>
