<svg xmlns="http://www.w3.org/2000/svg" width="271.854" height="191.549" viewBox="0 0 271.854 191.549">
  <defs>
    <style>
      .cls-1 {
        fill: #f2f2f2;
      }

      .cls-2 {
        fill: #3f3d56;
      }

      .cls-3 {
        opacity: 0.1;
      }

      .cls-4 {
        fill: #575a89;
      }

      .cls-5 {
        fill: #ff6584;
      }

      .cls-6 {
        fill: #ef4647;
      }
    </style>
  </defs>
  <g id="undraw_city_girl_ccpd" transform="translate(-313.858)">
    <path id="Path_261" data-name="Path 261" class="cls-1" d="M594.368,139.575C551.013,106.262,490.7,104.9,446.7,137.359c-23.261,17.158-41.295,43.41-38.014,83.379,1.159,14.138,4.387,25.736,9.1,35.231,19.072,38.49,97.4,37.008,101.754,37q4.228,0,8.455.188a185.992,185.992,0,0,1,29.366,3.7c13.793,2.866,31.353,4.306,47.042-1.122a54.619,54.619,0,0,0,7.747-3.358c8.622-4.567,18.273-8.932,23.916-19.766,4.24-8.131,7.33-18.326,8.817-31.024C650.284,195.348,623.244,161.765,594.368,139.575Z" transform="translate(-75.643 -113.785)"/>
    <ellipse id="Ellipse_88" data-name="Ellipse 88" class="cls-2" cx="123.972" cy="11.637" rx="123.972" ry="11.637" transform="translate(328.561 168.275)"/>
    <ellipse id="Ellipse_89" data-name="Ellipse 89" class="cls-3" cx="115.303" cy="5.462" rx="115.303" ry="5.462" transform="translate(331.173 174.449)"/>
    <path id="Path_262" data-name="Path 262" class="cls-4" d="M864.846,73.342V86.349h-17V228.2h35.472V73.342Z" transform="translate(-354.582 -48.701)"/>
    <path id="Path_263" data-name="Path 263" class="cls-4" d="M560.916,290.055V267.639H539.238v22.416h-8.129v67.989H568.8V290.055Z" transform="translate(-144.26 -178.302)"/>
    <rect id="Rectangle_148" data-name="Rectangle 148" class="cls-2" width="29.314" height="31.777" transform="translate(391.037 148.211)"/>
    <rect id="Rectangle_149" data-name="Rectangle 149" class="cls-3" width="4.68" height="31.777" transform="translate(391.037 148.211)"/>
    <path id="Path_264" data-name="Path 264" class="cls-2" d="M699.452,52.079v7.609H656.1V52.079h-12.81V214.57h68.728V52.079Z" transform="translate(-218.749 -34.582)"/>
    <rect id="Rectangle_150" data-name="Rectangle 150" class="cls-3" width="9.607" height="7.636" transform="translate(480.703 17.497)"/>
    <rect id="Rectangle_151" data-name="Rectangle 151" class="cls-3" width="9.607" height="162.491" transform="translate(424.538 17.497)"/>
    <path id="Path_265" data-name="Path 265" class="cls-2" d="M461.841,178.481v-6.158h-6.4v6.158H443.858V295h29.314V178.481Z" transform="translate(-86.323 -115.01)"/>
    <rect id="Rectangle_152" data-name="Rectangle 152" class="cls-3" width="3.449" height="6.158" transform="translate(369.113 57.715)"/>
    <rect id="Rectangle_153" data-name="Rectangle 153" class="cls-3" width="3.449" height="116.517" transform="translate(357.535 63.472)"/>
    <rect id="Rectangle_154" data-name="Rectangle 154" class="cls-3" width="9.607" height="100.259" transform="translate(480.703 79.73)"/>
    <rect id="Rectangle_155" data-name="Rectangle 155" class="cls-3" width="8.868" height="21.431" transform="translate(377.981 63.836)"/>
    <rect id="Rectangle_156" data-name="Rectangle 156" class="cls-5" width="13.795" height="5.912" transform="translate(435.131 38.07)"/>
    <rect id="Rectangle_157" data-name="Rectangle 157" class="cls-5" width="13.795" height="5.912" transform="translate(464.445 98.725)"/>
    <rect id="Rectangle_158" data-name="Rectangle 158" class="cls-5" width="13.795" height="5.912" transform="translate(435.131 141.207)"/>
    <rect id="Rectangle_159" data-name="Rectangle 159" class="cls-5" width="13.795" height="5.912" transform="translate(365.418 90.375)"/>
    <rect id="Rectangle_160" data-name="Rectangle 160" class="cls-5" width="13.795" height="5.912" transform="translate(398.919 151.767)"/>
    <rect id="Rectangle_161" data-name="Rectangle 161" class="cls-3" width="23.648" height="9.853" transform="translate(393.993 117.134)"/>
    <rect id="Rectangle_162" data-name="Rectangle 162" class="cls-3" width="23.648" height="9.853" transform="translate(497.454 48.871)"/>
    <rect id="Rectangle_163" data-name="Rectangle 163" class="cls-3" width="23.648" height="9.853" transform="translate(497.454 69.743)"/>
    <rect id="Rectangle_164" data-name="Rectangle 164" class="cls-3" width="23.648" height="9.853" transform="translate(497.454 90.615)"/>
    <rect id="Rectangle_165" data-name="Rectangle 165" class="cls-3" width="23.648" height="9.853" transform="translate(497.454 111.486)"/>
    <rect id="Rectangle_166" data-name="Rectangle 166" class="cls-3" width="23.648" height="9.853" transform="translate(497.454 132.358)"/>
    <rect id="Rectangle_167" data-name="Rectangle 167" class="cls-3" width="23.648" height="9.853" transform="translate(497.454 153.138)"/>
    <path id="Path_266" data-name="Path 266" class="cls-2" d="M931.372,225.569V198.718H914.128v26.851H907.97v86.957h29.314V225.569Z" transform="translate(-394.504 -132.537)"/>
    <rect id="Rectangle_168" data-name="Rectangle 168" class="cls-3" width="5.419" height="26.851" transform="translate(519.624 66.529)"/>
    <rect id="Rectangle_169" data-name="Rectangle 169" class="cls-3" width="5.419" height="86.957" transform="translate(513.466 93.032)"/>
    <rect id="Rectangle_170" data-name="Rectangle 170" class="cls-3" width="14.534" height="8.622" transform="translate(528.246 136.781)"/>
    <rect id="Rectangle_171" data-name="Rectangle 171" class="cls-5" width="13.795" height="5.912" transform="translate(528.739 124.018)"/>
    <path id="Path_267" data-name="Path 267" class="cls-6" d="M1046.312,403.281c0,21.946-13.047,29.609-29.141,29.609s-29.141-7.663-29.141-29.609,29.141-49.866,29.141-49.866S1046.312,381.334,1046.312,403.281Z" transform="translate(-460.602 -273.322)"/>
    <path id="Path_268" data-name="Path 268" class="cls-2" d="M1009.959,315.748l.3-18.367,12.421-22.723L1010.3,294.5l.134-8.259L1019,269.8l-8.524,14.255h0l.242-14.854,9.165-13.088-9.129,10.753.151-27.236-.948,36.056.077-1.487-9.32-14.265,9.172,17.121-.87,16.589-.027-.44L998.246,278.19l10.712,16.568-.111,2.075-.02.031.01.17-2.2,42.087h2.943l.353-21.739,10.684-16.527Z" transform="translate(-454.449 -159.703)"/>
    <path id="Path_269" data-name="Path 269" class="cls-6" d="M410.639,403.988c0,21.946-13.047,29.609-29.141,29.609s-29.141-7.663-29.141-29.609S381.5,354.122,381.5,354.122,410.639,382.041,410.639,403.988Z" transform="translate(-38.5 -273.792)"/>
    <path id="Path_270" data-name="Path 270" class="cls-2" d="M374.285,316.455l.3-18.367L387,275.365,374.63,295.206l.134-8.259,8.56-16.44L374.8,284.762h0l.241-14.854,9.166-13.088-9.128,10.753.151-27.236-.948,36.056.078-1.487-9.32-14.265,9.17,17.12-.868,16.589-.026-.44L362.573,278.9l10.711,16.568-.109,2.074-.019.031.009.17-2.2,42.087h2.944l.353-21.739,10.685-16.527Z" transform="translate(-32.348 -160.173)"/>
  </g>
</svg>
