<svg xmlns="http://www.w3.org/2000/svg" xmlns:xlink="http://www.w3.org/1999/xlink" width="235.595" height="207.058" viewBox="0 0 235.595 207.058">
  <defs>
    <style>
      .cls-1, .cls-14, .cls-18 {
        fill: #ef4647;
      }

      .cls-1, .cls-12, .cls-17, .cls-4 {
        opacity: 0.1;
      }

      .cls-2 {
        fill: url(#linear-gradient);
      }

      .cls-3 {
        fill: #efb7b9;
      }

      .cls-5 {
        fill: #e1e7ef;
      }

      .cls-6 {
        opacity: 0.05;
      }

      .cls-7 {
        fill: #b07473;
      }

      .cls-8 {
        fill: #444053;
      }

      .cls-9 {
        fill: #67647e;
      }

      .cls-10 {
        fill: url(#linear-gradient-2);
      }

      .cls-11 {
        fill: #585268;
      }

      .cls-13 {
        fill: none;
        stroke: #535461;
        stroke-miterlimit: 10;
        stroke-width: 2px;
      }

      .cls-15 {
        fill: #6c63ff;
      }

      .cls-16 {
        fill: #a8a8a8;
      }

      .cls-17 {
        fill: #fff;
      }

      .cls-18 {
        opacity: 0.3;
      }
    </style>
    <linearGradient id="linear-gradient" x1="0.5" y1="0.982" x2="0.5" y2="0.216" gradientUnits="objectBoundingBox">
      <stop offset="0" stop-color="gray" stop-opacity="0.251"/>
      <stop offset="0.54" stop-color="gray" stop-opacity="0.122"/>
      <stop offset="1" stop-color="gray" stop-opacity="0.102"/>
    </linearGradient>
    <linearGradient id="linear-gradient-2" x1="1.045" y1="-0.254" x2="0.033" y2="-0.254" xlink:href="#linear-gradient"/>
  </defs>
  <g id="undraw_instant_support_elxh_1_" data-name="undraw_instant_support_elxh(1)" transform="translate(0)">
    <path id="Path_169" data-name="Path 169" class="cls-1" d="M355.281,164.934a1,1,0,0,0,.95,1.044h1.347a1.049,1.049,0,0,0,0,2.089h-1.9a1.049,1.049,0,0,0,0,2.089H364.6a102.758,102.758,0,0,1-32.533,47.531.887.887,0,0,0-.532-.183H320.545a1.049,1.049,0,0,0,0,2.089h1.347a1.049,1.049,0,0,0,0,2.089h-1.9a1.049,1.049,0,0,0,0,2.089h3.9a106.666,106.666,0,0,1-97.32,10.879q-2.448-.946-4.839-2-4.163-1.849-8.131-4.032-1.711-.941-3.384-1.946l-.052-.03-.252-.153-.653-.4q-1.978-1.215-3.9-2.513l-.786-.536q-1-.689-1.974-1.4-1.949-1.41-3.831-2.913l-.449-.365-.362-.294q-2.533-2.059-4.927-4.269l-.067-.062q-1.172-1.084-2.311-2.2l-.067-.067a103.582,103.582,0,0,1-16.228-20.636h4.379a1.049,1.049,0,0,0,0-2.089h1.9a1.049,1.049,0,0,0,0-2.089H179.3a.931.931,0,0,0,.861-.506,1.134,1.134,0,0,0,0-1.073.931.931,0,0,0-.861-.506h-8.373a101.376,101.376,0,0,1-6.218-76.054h18.635a2.224,2.224,0,0,0,0-4.412h4.01a2.215,2.215,0,0,0,0-4.41h-2.865a2.224,2.224,0,0,0,0-4.412H169.912A105.894,105.894,0,0,1,329.673,58.213H325a2.224,2.224,0,0,0,0,4.412h2.858a2.215,2.215,0,0,0,0,4.41h-4.01a1.973,1.973,0,0,0-1.794,1.081,2.4,2.4,0,0,0,0,2.25,1.973,1.973,0,0,0,1.794,1.081h19.958A101.4,101.4,0,0,1,366.4,163.909l-10.172-.019A1,1,0,0,0,355.281,164.934Z" transform="translate(-152.041 -34.641)"/>
    <path id="Path_170" data-name="Path 170" class="cls-2" d="M373.225,366.057c.8-.11,3.567-3.677,5.173-4.728.74-.484,1.2.539,1.49,1.782a20.908,20.908,0,0,1,2.861-2.681.547.547,0,0,1,.662-.021c1.034.716,1.255,5.033,1.255,5.033l-.036.271a4.949,4.949,0,0,0,2.689,1.106,5.478,5.478,0,0,1,2.165.548c.362.286,4.577,1.907,7,3.089s8.686,7.071,8.686,7.071l5.935,2.133.833-.256c.265-1.523,1.478-1.508,2.9-.893,2.308-.676,4.61-1.2,5.354-.664-2.127-1.731-4.741-4.476-4.711-7.5.042-4.131,5.161,1.663,7.1,4.006l.166.2.044-.262a8.317,8.317,0,0,0,4.427.765,5.52,5.52,0,0,1,4.625,2.373c.271.225,3.029,1.709,3.242,1.767.166.043,4.923.731,7.324,1.075,3.321-.478,8.115.356,8.379,1.149.3.914,3.952,4.241,3.952,4.241l1.251.524s.149.609.32,1.389a7.008,7.008,0,0,0,.309-.941,23.978,23.978,0,0,0,.442-2.486h0c.015-.113.032-.225.05-.338a.627.627,0,0,1,.013-.082l.046-.283.011-.07q.093-.547.225-1.075h0a7.46,7.46,0,0,1,.324-1.008h0a3.281,3.281,0,0,1,.721-1.146,2.843,2.843,0,0,1,1.614-.676,4.455,4.455,0,0,1,1.417-.1c.406.061.8.238,1.211.277a6.117,6.117,0,0,0,1.945-.393,1.856,1.856,0,0,1,1.907.423,6.836,6.836,0,0,1,1.034,2.078,13,13,0,0,0,2.128,3.638,4.971,4.971,0,0,1,1.43,2.364,9.953,9.953,0,0,1-.208,3.15c-.282,2.315.173,4.856-.334,7.007h0c-.011.049-.023.094-.036.143-.029.116-.059.235-.1.347h0q-.048.157-.107.3a2.6,2.6,0,0,1-.126.277,1.486,1.486,0,0,1-.151.238,1.016,1.016,0,0,1-.177.186.868.868,0,0,1-.742.137l-.137-.031-.126-.037a2.737,2.737,0,0,1-.439-.168,1.5,1.5,0,0,1-.408-.289,1.709,1.709,0,0,1-.425-1.057,5.667,5.667,0,0,1-.027-.576v-.134l-.029.14h0c-.753,3.366-2.674,5.711-4.906,5.985s-4.355-1.574-5.42-4.717l-.216-.116a9.384,9.384,0,0,0-2.121-.786h0q-.117.381-.263.737c-2.348,5.847-9.685,6.048-9.685,6.048s-8.108-.5-8.735-.765a3.469,3.469,0,0,0-3.038,1,2.251,2.251,0,0,1-3.691-.938c-.772-2.072-1.659-1.673-1.659-1.673a7.612,7.612,0,0,1-.408-1.112l-.517.04a16.569,16.569,0,0,0-4.026.646c-.7.448-3.7.414-5.317-.676s-6.675-5.715-6.675-5.715-3.143-1.523-3.7-1.828a13.974,13.974,0,0,1-2.022-2.535l-3.014-1.865s-3.183-2.742-4.526-3.028-2.56-2.163-2.56-2.163l-8.535-6.349a2.831,2.831,0,0,0-1.717.137c-.763.381-5.731-.783-7.236-3.351,0,0-.055-.332-.13-.874-.069,0-.139-.021-.214-.024-.32.113-.517.189-.517.189a14.131,14.131,0,0,1-2.018,1.989c-1.013.777-2.1,1.2-2.48-.128a3.557,3.557,0,0,1-.114-.646c-.98,1.112-4.28,4.539-4.373.457C367.624,370.533,372.432,366.167,373.225,366.057Z" transform="translate(-311.449 -283.012)"/>
    <path id="Path_171" data-name="Path 171" class="cls-3" d="M425.734,458.585a7.288,7.288,0,0,1,3.689.941,11.489,11.489,0,0,1,2.069,1.35c3.158,2.541.536-11.169.536-11.169a16.115,16.115,0,0,1-1.936-.143c-1.263-.161-2.777-.5-3.338-1.2C425.724,447.065,425.734,458.585,425.734,458.585Z" transform="translate(-277.269 -346.444)"/>
    <path id="Path_172" data-name="Path 172" class="cls-3" d="M619.14,390.672c-.038,3.833,4.219,7.205,6.241,8.592.629.43,1.045.667,1.045.667l.441-4.411s-.277-.357-.723-.9C624.223,392.311,619.182,386.6,619.14,390.672Z" transform="translate(-513.927 -301.637)"/>
    <path id="Path_173" data-name="Path 173" class="cls-4" d="M619.14,411.54c.629.43,1.045.667,1.045.667l.44-4.411s-.276-.356-.723-.9Z" transform="translate(-507.163 -314.487)"/>
    <path id="Path_174" data-name="Path 174" class="cls-5" d="M534.994,412.8s-8.346-1.2-8.565-1.255-2.939-1.523-3.206-1.74a5.455,5.455,0,0,0-4.562-2.343,8.2,8.2,0,0,1-4.367-.753l-.982,5.971,19.824,3.592Z" transform="translate(-399.677 -314.726)"/>
    <path id="Path_175" data-name="Path 175" class="cls-6" d="M534.994,412.8s-8.346-1.2-8.565-1.255-2.939-1.523-3.206-1.74a5.455,5.455,0,0,0-4.562-2.343,8.2,8.2,0,0,1-4.367-.753l-.982,5.971,19.824,3.592Z" transform="translate(-399.677 -314.726)"/>
    <path id="Path_176" data-name="Path 176" class="cls-7" d="M831.461,366.44s-.305-5.981-1.888-4.945-4.318,4.57-5.1,4.667-5.531,4.415-5.419,9.14,4.578-.765,4.578-.765,4.154-1.63,5.5-.9S831.461,366.44,831.461,366.44Z" transform="translate(-763.342 -281.014)"/>
    <path id="Path_177" data-name="Path 177" class="cls-4" d="M819.092,375.338c.109,4.725,4.577-.765,4.577-.765s4.152-1.63,5.5-.9c.382.213.763-.3,1.068-1.161a32.608,32.608,0,0,0,1.194-5.557c.044-.3.065-.484.065-.484s-.305-5.981-1.888-4.942-4.316,4.555-5.1,4.664S818.985,370.612,819.092,375.338Z" transform="translate(-763.382 -281.043)"/>
    <path id="Path_178" data-name="Path 178" class="cls-4" d="M819.491,380.6c.135.554,1.095,1.435,2.584,2.51a32.6,32.6,0,0,0,1.194-5.557,1.046,1.046,0,0,1-.511-.664C822.648,376.057,818.715,377.422,819.491,380.6Z" transform="translate(-754.217 -291.775)"/>
    <path id="Path_179" data-name="Path 179" class="cls-8" d="M698.087,392.52l-9.126-3.3s-6.18-5.81-8.583-6.974-6.547-2.763-6.906-3.047a5.358,5.358,0,0,0-2.134-.542c-.765-.076-2.708-.609-2.819-1.441s-4.043.527-3.267,3.708,28.512,17.022,28.512,17.022Z" transform="translate(-598.043 -293.28)"/>
    <path id="Path_180" data-name="Path 180" class="cls-4" d="M698.087,392.52l-9.126-3.3s-6.18-5.81-8.583-6.974-6.547-2.763-6.906-3.047a5.358,5.358,0,0,0-2.134-.542c-.765-.076-2.708-.609-2.819-1.441s-4.043.527-3.267,3.708,28.512,17.022,28.512,17.022Z" transform="translate(-598.043 -293.28)"/>
    <path id="Path_181" data-name="Path 181" class="cls-7" d="M841.562,378.212c.109,4.728,4.577-.765,4.577-.765a15.8,15.8,0,0,1,4.64-1.085,1.883,1.883,0,0,1,.856.189c1.335.734,2.329-7.2,2.329-7.2s-.019-.384-.074-.938c-.162-1.645-.631-4.78-1.816-4.006-1.583,1.039-4.316,4.57-5.1,4.664S841.455,373.5,841.562,378.212Z" transform="translate(-790.845 -283.216)"/>
    <path id="Path_182" data-name="Path 182" class="cls-4" d="M841.887,384.2a1.885,1.885,0,0,1,.856.189c1.335.734,2.329-7.2,2.329-7.2s-.019-.384-.074-.938c-1.114-.381-2.047-.722-2.047-.722C840.907,375.673,841.578,381.934,841.887,384.2Z" transform="translate(-780.868 -291.13)"/>
    <path id="Path_183" data-name="Path 183" class="cls-8" d="M587.026,385.292c1.486,2.538,6.391,3.683,7.139,3.312a2.79,2.79,0,0,1,1.688-.14l8.419,6.261s1.2,1.846,2.525,2.133,4.465,2.986,4.465,2.986l2.972,1.828a14.127,14.127,0,0,0,2,2.538c.549.3,3.652,1.8,3.652,1.8s4.984,4.57,6.584,5.639,4.554,1.106,5.245.664a16.2,16.2,0,0,1,3.969-.637c.637-.052,1.091-.079,1.091-.079l1.572-18.983s-1.3-.46-2.939-1.079a40.894,40.894,0,0,1-6.345-2.779c-1.455-1.094-9.212,2.133-10.635,2.178s-8.68-3.656-8.68-3.656-9.067-8.171-10.9-8.174-4.217-1.28-5.7-1.606-5.176-1.679-5.176-1.679C585.475,376,587.026,385.292,587.026,385.292Z" transform="translate(-522.819 -293.964)"/>
    <path id="Path_184" data-name="Path 184" class="cls-4" d="M425.8,456.89a13.663,13.663,0,0,0,.584,5.6,11.476,11.476,0,0,1,2.069,1.35c3.158,2.541.536-11.169.536-11.169a16.107,16.107,0,0,1-1.936-.143A11.872,11.872,0,0,0,425.8,456.89Z" transform="translate(-274.068 -349.533)"/>
    <path id="Path_185" data-name="Path 185" class="cls-3" d="M388.588,449.844c-.455,4.557,1.337,8.918,4.135,10.064s5.683-1.3,6.656-5.646h0c.034-.152.065-.3.1-.46.071-.374.125-.754.164-1.139.465-4.7-1.457-9.158-4.372-10.141s-5.8,1.855-6.564,6.454Q388.63,449.4,388.588,449.844Z" transform="translate(-235.89 -342.475)"/>
    <path id="Path_186" data-name="Path 186" class="cls-4" d="M587.249,439.37a13.382,13.382,0,0,0-.151,8.083c.637-.052,1.091-.079,1.091-.079l1.571-18.983s-1.3-.46-2.939-1.079l-.17-.021S588.929,434.142,587.249,439.37Z" transform="translate(-469.246 -331.329)"/>
    <path id="Path_187" data-name="Path 187" class="cls-5" d="M446.553,438.3a12.734,12.734,0,0,0,.191,9s.875-.393,1.636,1.651a2.212,2.212,0,0,0,3.641.914,3.37,3.37,0,0,1,3-.984c.618.262,8.615.753,8.615.753s7.236-.2,9.553-5.962q.143-.35.259-.725a57.377,57.377,0,0,0,1.886-6.684,11.237,11.237,0,0,0-.248-2.133c-.242-1.295-.572-2.608-.572-2.608L473.278,431s-3.6-3.281-3.9-4.18-6.447-1.846-9.573-.844-9.035.874-9.035.874l-4.829-.649S448.224,433.075,446.553,438.3Z" transform="translate(-325.487 -330.521)"/>
    <path id="Path_188" data-name="Path 188" class="cls-4" d="M561.942,492.739a13.349,13.349,0,0,1-2.1-1.618C558.732,490.058,561.942,492.739,561.942,492.739Z" transform="translate(-435.418 -377.434)"/>
    <path id="Path_189" data-name="Path 189" class="cls-4" d="M500.862,438.623s-2.376,7.056-7.457,4.734-8.886-.609-8.886-.609-4.753-.436-5.628-1.018a27,27,0,0,0-4.017-2,22.194,22.194,0,0,1-2.622-1.136c-.828-.411-5.251-1.9-5.251-1.9s1.4-4.99.721-5.627c0,0,4.366,1.42,4.415.914s4.942-.813,5.34-.3,4.768,1.011,5.15,1.24,7.133,1.176,7.133,1.176S499.889,427.518,500.862,438.623Z" transform="translate(-356.133 -333.432)"/>
    <path id="Path_190" data-name="Path 190" class="cls-3" d="M643.255,423.271s-7.955-7.364-8.247-2.5,7.484,6.636,7.484,6.636Z" transform="translate(-533.873 -323.969)"/>
    <path id="Path_191" data-name="Path 191" class="cls-4" d="M501.364,435.5s-2.384,7.056-7.457,4.734a11.379,11.379,0,0,0-8.888-.609s-4.753-.436-5.626-1.018a26.933,26.933,0,0,0-4.019-2,22.325,22.325,0,0,1-2.622-1.136c-.828-.411-5.251-1.9-5.251-1.9s1.4-4.99.723-5.627c0,0,4.364,1.42,4.415.914s4.942-.813,5.34-.3,4.768,1.011,5.15,1.24,7.127,1.173,7.127,1.173S500.389,424.4,501.364,435.5Z" transform="translate(-356.748 -331.074)"/>
    <path id="Path_192" data-name="Path 192" class="cls-5" d="M500.534,436.643s-2.378,7.056-7.457,4.734a11.376,11.376,0,0,0-8.888-.609s-4.753-.436-5.626-1.018a26.965,26.965,0,0,0-4.019-2,21.84,21.84,0,0,1-2.622-1.136c-.828-.411-5.251-1.895-5.251-1.895s1.4-4.993.723-5.627c0,0,4.364,1.42,4.415.914s4.942-.813,5.34-.3,4.759,1.011,5.15,1.243,7.131,1.167,7.131,1.167S499.559,425.538,500.534,436.643Z" transform="translate(-355.73 -331.935)"/>
    <path id="Path_193" data-name="Path 193" class="cls-4" d="M564.116,440.535c.074-.326-1.207-.171-3.736-.951s-6.786-2.645-6.786-2.645S563.548,443,564.116,440.535Z" transform="translate(-436.885 -337.031)"/>
    <path id="Path_194" data-name="Path 194" class="cls-4" d="M496.643,441.38s-.12.548,1.114,1.737" transform="translate(-357.267 -340.146)"/>
    <path id="Path_195" data-name="Path 195" class="cls-4" d="M511.378,444a2.562,2.562,0,0,0,.9,2.583" transform="translate(-375.016 -342.199)"/>
    <path id="Path_196" data-name="Path 196" class="cls-4" d="M474.137,455.831l-.984,1.459s-1.057.914-1.169,1.4-2.258.4-2.258.4l-2.479,2.5,1.053-2.346a2.1,2.1,0,0,1-2.43-.826c-1.207-1.438-3.6-5.179-3.6-5.179l-4.324-5.374-.072-3.464,3.4-.881,7.919,12.814,1.795.405,1.907-.338Z" transform="translate(-326.042 -343.4)"/>
    <path id="Path_197" data-name="Path 197" class="cls-9" d="M473,455.036l-.984,1.459s-1.055.914-1.169,1.4-2.26.4-2.26.4l-2.479,2.5,1.053-2.346a2.1,2.1,0,0,1-2.428-.826c-1.209-1.438-3.6-5.179-3.6-5.179l-4.329-5.359-.072-3.464,3.4-.881,7.928,12.814,1.795.405,1.907-.338Z" transform="translate(-324.657 -342.808)"/>
    <path id="Path_198" data-name="Path 198" class="cls-4" d="M447.943,462.4l2.17,1.569q.143-.351.258-.728a57.147,57.147,0,0,0,1.888-6.684,11.105,11.105,0,0,0-.25-2.133Z" transform="translate(-301.222 -350.745)"/>
    <path id="Path_199" data-name="Path 199" class="cls-5" d="M445.813,461.726l2.17,1.566q.143-.35.259-.725a57.364,57.364,0,0,0,1.886-6.684,11.242,11.242,0,0,0-.248-2.133Z" transform="translate(-298.622 -350.239)"/>
    <path id="Path_200" data-name="Path 200" class="cls-10" d="M388.437,448.966a1.326,1.326,0,0,0,.336.451c.337.247.73,0,1.1.027s.744.35,1.127.4a1.917,1.917,0,0,0,.8-.158,1.56,1.56,0,0,1,1.526.1,1.992,1.992,0,0,1,.488,2.05,1.215,1.215,0,0,0,1.394.777c1.2-.271,2.209-1.922,3.433-.643a3.17,3.17,0,0,1,.486,2.279c.034-.152.065-.3.1-.46.071-.374.125-.754.164-1.139.465-4.7-1.457-9.158-4.372-10.141s-5.8,1.855-6.564,6.454Z" transform="translate(-235.613 -341.848)"/>
    <path id="Path_201" data-name="Path 201" class="cls-11" d="M383.7,442.033a1.832,1.832,0,0,0,.835.451,1.027,1.027,0,0,0,.992-.07,2.056,2.056,0,0,0,.551-.981c.706-2.236.16-4.954.46-7.412a10.177,10.177,0,0,0,.206-3.108,5.136,5.136,0,0,0-1.409-2.331,12.9,12.9,0,0,1-2.1-3.589,6.724,6.724,0,0,0-1.019-2.047,1.815,1.815,0,0,0-1.875-.417,6.013,6.013,0,0,1-1.919.384c-.4-.037-.793-.21-1.194-.271a4.257,4.257,0,0,0-1.4.1,2.808,2.808,0,0,0-1.591.664c-.833.8-1.158,2.437-1.375,3.961a9.935,9.935,0,0,1-1.173,4.177,1.113,1.113,0,0,0-.263.524,1.261,1.261,0,0,0,.166.689l.87,1.846a1.835,1.835,0,0,0,.452.689c.336.25.731,0,1.1.024s.742.356,1.127.4a1.867,1.867,0,0,0,.8-.158,1.54,1.54,0,0,1,1.516.1,2.011,2.011,0,0,1,.488,2.05,1.214,1.214,0,0,0,1.394.777c1.2-.268,2.211-1.922,3.433-.643C383.772,438.9,382.759,441.079,383.7,442.033Z" transform="translate(-219.417 -327.652)"/>
    <g id="Group_459" data-name="Group 459" class="cls-12" transform="translate(151.949 96.683)">
      <path id="Path_202" data-name="Path 202" d="M441.836,431.251a14.876,14.876,0,0,1-.736,3.373,23.546,23.546,0,0,0,.435-2.437,12.548,12.548,0,0,1,.664-2.836A17.714,17.714,0,0,0,441.836,431.251Z" transform="translate(-440.106 -429.35)"/>
      <path id="Path_203" data-name="Path 203" d="M374.778,452.128l.059-.088a1.981,1.981,0,0,0,.143.381l.87,1.846a1.86,1.86,0,0,0,.452.689c.336.25.731,0,1.1.024s.742.356,1.127.4a1.868,1.868,0,0,0,.8-.158,1.559,1.559,0,0,1,1.526.1,1.991,1.991,0,0,1,.488,2.05,1.213,1.213,0,0,0,1.394.777c1.2-.268,2.209-1.922,3.433-.643,1,1.054-.012,3.229.933,4.183a1.817,1.817,0,0,0,.833.451,1.026,1.026,0,0,0,.992-.07,1.452,1.452,0,0,0,.381-.545q-.057.248-.132.484a2.056,2.056,0,0,1-.551.981,1.027,1.027,0,0,1-.992.07,1.833,1.833,0,0,1-.835-.451c-.942-.954.071-3.129-.933-4.183-1.215-1.28-2.222.375-3.433.643a1.214,1.214,0,0,1-1.394-.777,2.007,2.007,0,0,0-.488-2.05,1.54,1.54,0,0,0-1.516-.1,1.868,1.868,0,0,1-.8.158c-.381-.046-.742-.375-1.127-.4s-.763.225-1.1-.024a1.835,1.835,0,0,1-.452-.689l-.87-1.846a1.26,1.26,0,0,1-.166-.689A1.128,1.128,0,0,1,374.778,452.128Z" transform="translate(-374.52 -445.127)"/>
    </g>
    <path id="Path_204" data-name="Path 204" class="cls-4" d="M685.607,439.1s-1.49,4.265-1.173,4.972S685.607,439.1,685.607,439.1Z" transform="translate(-586.503 -338.74)"/>
    <path id="Path_205" data-name="Path 205" class="cls-4" d="M710.843,435s-.939,2.623-.748,3.144" transform="translate(-617.357 -335.471)"/>
    <path id="Path_206" data-name="Path 206" class="cls-4" d="M740.322,415.09s-1.085,1.219-.683,2.011" transform="translate(-653.331 -320.369)"/>
    <path id="Path_207" data-name="Path 207" class="cls-4" d="M746.294,412.9s-1.379,2.693-.921,3.427" transform="translate(-660.59 -318.844)"/>
    <path id="Path_208" data-name="Path 208" class="cls-4" d="M845.952,388.67s-.21,4.506-1.039,4.122S845.952,388.67,845.952,388.67Z" transform="translate(-782.184 -300.645)"/>
    <path id="Path_209" data-name="Path 209" class="cls-13" d="M805.221,708.467s-1.157-6.279.218-10.9a15.327,15.327,0,0,0,.5-6.227,24.369,24.369,0,0,0-.551-2.919" transform="translate(-733.492 -536.302)"/>
    <path id="Path_210" data-name="Path 210" class="cls-14" d="M805.525,675.814a14.743,14.743,0,0,1-.873,3,14.766,14.766,0,0,1-.872-3c.022-.744.406-1.33.873-1.33S805.5,675.07,805.525,675.814Z" transform="translate(-732.791 -516.094)"/>
    <path id="Path_211" data-name="Path 211" class="cls-14" d="M797.232,687.936a7.412,7.412,0,0,1-1.755,1.761,17.352,17.352,0,0,1,.29-3.275c.263-.646.8-.829,1.209-.408a1.954,1.954,0,0,1,.256,1.932Z" transform="translate(-722.826 -524.55)"/>
    <path id="Path_212" data-name="Path 212" class="cls-14" d="M796.292,710.791c-.431.347-2.071.107-2.071.107a11.89,11.89,0,0,1,1.286-2.6c.426-.3.926-.02,1.136.646A1.89,1.89,0,0,1,796.292,710.791Z" transform="translate(-721.978 -550.043)"/>
    <path id="Path_213" data-name="Path 213" class="cls-14" d="M801.057,729.045c-.381.457-2.029.664-2.029.664a14.312,14.312,0,0,1,.992-2.9c.387-.458.933-.327,1.22.291A1.988,1.988,0,0,1,801.057,729.045Z" transform="translate(-727.698 -562.804)"/>
    <path id="Path_214" data-name="Path 214" class="cls-14" d="M805.015,693.65c.345.536,1.955,1.091,1.955,1.091a15.534,15.534,0,0,0-.74-3.089.67.67,0,0,0-1.233.029A2.027,2.027,0,0,0,805.015,693.65Z" transform="translate(-734.501 -528.608)"/>
    <path id="Path_215" data-name="Path 215" class="cls-14" d="M809.395,714.311c.431.344,2.071.107,2.071.107a11.885,11.885,0,0,0-1.286-2.6c-.426-.3-.926-.02-1.136.646a1.89,1.89,0,0,0,.351,1.843Z" transform="translate(-739.956 -552.49)"/>
    <path id="Path_216" data-name="Path 216" class="cls-14" d="M811.384,735.649c.381.457,2.029.664,2.029.664a14.37,14.37,0,0,0-.992-2.906.627.627,0,0,0-.885-.2,1.5,1.5,0,0,0-.532,1.148A1.8,1.8,0,0,0,811.384,735.649Z" transform="translate(-742.345 -567.369)"/>
    <path id="Path_217" data-name="Path 217" class="cls-13" d="M953.384,687.463s-1.158-6.279.217-10.9a15.372,15.372,0,0,0,.5-6.23,24.506,24.506,0,0,0-.551-2.922" transform="translate(-919.511 -513.247)"/>
    <path id="Path_218" data-name="Path 218" class="cls-14" d="M953.681,654.527a14.746,14.746,0,0,1-.873,3,14.768,14.768,0,0,1-.872-3,1.72,1.72,0,0,1,.424-1.262.607.607,0,0,1,.9,0,1.719,1.719,0,0,1,.424,1.262Z" transform="translate(-918.784 -499.969)"/>
    <path id="Path_219" data-name="Path 219" class="cls-14" d="M945.392,666.946a7.41,7.41,0,0,1-1.755,1.761,17.2,17.2,0,0,1,.29-3.275c.263-.646.8-.829,1.209-.408a1.955,1.955,0,0,1,.255,1.932Z" transform="translate(-909.053 -508.731)"/>
    <path id="Path_220" data-name="Path 220" class="cls-14" d="M944.163,689.7c-.429.347-2.069.11-2.069.11a11.818,11.818,0,0,1,1.286-2.6.606.606,0,0,1,.885.055,1.755,1.755,0,0,1,.4,1.263A1.555,1.555,0,0,1,944.163,689.7Z" transform="translate(-907.889 -525.335)"/>
    <path id="Path_221" data-name="Path 221" class="cls-15" d="M949.321,708.124c-.381.457-2.029.664-2.029.664a14.381,14.381,0,0,1,.992-2.906c.388-.42.914-.276,1.192.326A2.011,2.011,0,0,1,949.321,708.124Z" transform="translate(-913.863 -548.277)"/>
    <path id="Path_222" data-name="Path 222" class="cls-15" d="M953.195,672.66c.345.536,1.955,1.091,1.955,1.091a15.675,15.675,0,0,0-.74-3.089.67.67,0,0,0-1.233.029A2.027,2.027,0,0,0,953.195,672.66Z" transform="translate(-920.441 -512.791)"/>
    <path id="Path_223" data-name="Path 223" class="cls-15" d="M957.619,693.254c.431.347,2.072.107,2.072.107a11.9,11.9,0,0,0-1.286-2.593c-.43-.347-.954-.071-1.171.615a1.855,1.855,0,0,0,.385,1.871Z" transform="translate(-925.785 -528.026)"/>
    <path id="Path_224" data-name="Path 224" class="cls-15" d="M959.513,714.735c.381.457,2.029.664,2.029.664a14.308,14.308,0,0,0-.992-2.9c-.387-.458-.933-.327-1.22.291A1.988,1.988,0,0,0,959.513,714.735Z" transform="translate(-928.023 -552.853)"/>
    <path id="Path_225" data-name="Path 225" class="cls-13" d="M836.673,685.47s-1.158-6.279.217-10.9a15.365,15.365,0,0,0,.5-6.23,24.433,24.433,0,0,0-.551-2.919" transform="translate(-771.876 -511.739)"/>
    <path id="Path_226" data-name="Path 226" class="cls-14" d="M836.975,652.824a14.741,14.741,0,0,1-.874,3,14.768,14.768,0,0,1-.872-3c.022-.744.406-1.33.872-1.33S836.953,652.08,836.975,652.824Z" transform="translate(-771.175 -498.765)"/>
    <path id="Path_227" data-name="Path 227" class="cls-14" d="M828.682,664.946a7.412,7.412,0,0,1-1.755,1.761,17.186,17.186,0,0,1,.29-3.275c.263-.646.8-.829,1.209-.408a1.955,1.955,0,0,1,.256,1.932Z" transform="translate(-761.21 -507.223)"/>
    <path id="Path_228" data-name="Path 228" class="cls-15" d="M827.551,687.739c-.429.347-2.069.107-2.069.107a11.883,11.883,0,0,1,1.286-2.6c.43-.346.954-.069,1.171.618A1.853,1.853,0,0,1,827.551,687.739Z" transform="translate(-760.172 -523.869)"/>
    <path id="Path_229" data-name="Path 229" class="cls-14" d="M832.507,706.055c-.381.457-2.029.664-2.029.664a14.3,14.3,0,0,1,.992-2.9c.387-.458.933-.327,1.22.291a1.987,1.987,0,0,1-.182,1.948Z" transform="translate(-766.085 -546.818)"/>
    <path id="Path_230" data-name="Path 230" class="cls-14" d="M836.485,670.66c.345.536,1.955,1.091,1.955,1.091a15.672,15.672,0,0,0-.74-3.089.67.67,0,0,0-1.233.029A2.026,2.026,0,0,0,836.485,670.66Z" transform="translate(-772.912 -511.284)"/>
    <path id="Path_231" data-name="Path 231" class="cls-14" d="M840.844,691.321c.431.344,2.071.107,2.071.107a11.978,11.978,0,0,0-1.285-2.6c-.426-.3-.926-.02-1.136.646A1.891,1.891,0,0,0,840.844,691.321Z" transform="translate(-778.344 -526.584)"/>
    <path id="Path_232" data-name="Path 232" class="cls-14" d="M842.834,712.659c.381.457,2.029.664,2.029.664a14.386,14.386,0,0,0-.992-2.907.628.628,0,0,0-.885-.2,1.5,1.5,0,0,0-.531,1.149A1.8,1.8,0,0,0,842.834,712.659Z" transform="translate(-780.732 -551.382)"/>
    <path id="Path_233" data-name="Path 233" class="cls-16" d="M954.085,713.811v.792l-.057-.076q-1-1.337-1.963-2.721l-.057-.082q-3.154-4.507-6.01-9.506c2.035-5.654,6.8-5.685,7.658-5.642h.134S954.1,706.755,954.085,713.811Z" transform="translate(-918.055 -541.969)"/>
    <path id="Path_234" data-name="Path 234" class="cls-17" d="M954.085,713.811v.792l-.057-.076q-1-1.337-1.963-2.721l-.057-.082q-3.154-4.507-6.01-9.506c2.035-5.654,6.8-5.685,7.658-5.642h.134S954.1,706.755,954.085,713.811Z" transform="translate(-918.055 -541.969)"/>
    <path id="Path_235" data-name="Path 235" class="cls-16" d="M861.814,646.733l-.16,1.688h0l-1.633,17.149-.534,5.624-.52,5.466q-1.454-1.161-2.874-2.4l-.044-.037-.214-.189-.555-.49q-1.68-1.5-3.309-3.1l-.667-.661q-.847-.85-1.676-1.727-1.656-1.739-3.254-3.595l-.381-.451-.307-.362q-2.151-2.541-4.185-5.268l-.057-.076q-1-1.338-1.962-2.721l.953-7.845q.286-2.382.473-4.783.1-1.3.172-2.6c.013-.207.025-.417.034-.625.328-6.541,1.335-20.129,4.16-23.325a1.531,1.531,0,0,1,1.907-.539,6.138,6.138,0,0,1,.826.451c1.982,1.267,3.856,3.784,5.411,6.4a52.822,52.822,0,0,1,5.34,12.869l2.861,10.3.009.034.027.094Z" transform="translate(-799.562 -485.747)"/>
    <path id="Path_236" data-name="Path 236" class="cls-17" d="M885.6,664.315l-3.317-18.121s-3.105,13.329-5.548,17.817l-.307-.363,4.4-17.381s1.442-9.9.288-13.512c-.915-2.864-3.921-12.491-5.121-16.354a1.531,1.531,0,0,1,1.907-.539,6.132,6.132,0,0,1,.826.451c1.526,3.863,4.349,11.577,4.558,16.364a95.513,95.513,0,0,1-.336,12.537Z" transform="translate(-829.765 -485.747)"/>
    <path id="Path_237" data-name="Path 237" class="cls-16" d="M810.584,751.438q-2.079-1.167-4.11-2.468A84.189,84.189,0,0,1,799.568,744q-1.453-1.161-2.874-2.4l-.044-.036.111-1.118h0l.12-1.219.395-4.04s1.837-12.686,3.778-19.087a14.341,14.341,0,0,1,1.127-2.873c.029-.052.059-.1.09-.143h0a1.566,1.566,0,0,1,1.335-.518,2.585,2.585,0,0,1,1.642,1.234c.954,1.356,1.993,4.07,2.886,9.265C809.509,731.023,810.224,742.8,810.584,751.438Z" transform="translate(-737.674 -553.079)"/>
    <path id="Path_238" data-name="Path 238" class="cls-17" d="M827.981,808.112a84.157,84.157,0,0,1-6.906-4.975q-1.453-1.161-2.874-2.4c.01-.378.033-.762.067-1.154h0a2.393,2.393,0,0,1,2.8-1.971,2.791,2.791,0,0,1,.525.067c2.735.546,5.043,3.512,5.964,7.662A18.621,18.621,0,0,1,827.981,808.112Z" transform="translate(-759.353 -612.22)"/>
    <path id="Path_239" data-name="Path 239" class="cls-17" d="M828.119,719.058c-.086-3.619,1.145-4.859,2.161-5.274a2.574,2.574,0,0,0-1.642-1.234,8.283,8.283,0,0,0-1.432,3.656l-2.6,20.193S828.265,725.123,828.119,719.058Z" transform="translate(-762.586 -553.081)"/>
    <path id="Path_240" data-name="Path 240" class="cls-16" d="M892.725,787.531l.709,1.551-.668-.661q-.846-.85-1.676-1.727l1.085-.363Z" transform="translate(-840.023 -604.383)"/>
    <path id="Path_241" data-name="Path 241" class="cls-17" d="M899.52,777.894q-.847-.85-1.677-1.727-1.655-1.74-3.254-3.6c.75-.853,1.463-1.444,1.959-1.374,0,0,2.542.277,2.93,5.807C899.5,777.287,899.513,777.583,899.52,777.894Z" transform="translate(-847.203 -593.857)"/>
    <path id="Path_242" data-name="Path 242" class="cls-4" d="M846.617,714.25l-.057.28-5.34,25.872-.445,2.151-.555-.491a94.917,94.917,0,0,1,5.172-24.787c.549-1.493.967-2.459,1.144-2.839.042-.1.069-.155.08-.177Z" transform="translate(-782.46 -554.263)"/>
    <path id="Path_243" data-name="Path 243" class="cls-4" d="M946.591,713.846c-.017.238-.038.475-.059.716q-1-1.338-1.963-2.721l-.057-.082,1.476-12.546.305-2.593A88.634,88.634,0,0,1,946.591,713.846Z" transform="translate(-910.561 -542.004)"/>
    <path id="Path_244" data-name="Path 244" class="cls-1" d="M596.258,93.574h-2.434c.919-.049,1.648-1.253,1.648-2.722s-.729-2.673-1.648-2.722H574.111c-.919.049-1.648,1.253-1.648,2.722s.729,2.673,1.648,2.722h2.434c-.941,0-1.7,1.218-1.7,2.721s.763,2.721,1.7,2.721h-3.406c-.919.049-1.648,1.253-1.648,2.722s.729,2.673,1.648,2.722h19.713c.919-.049,1.648-1.253,1.648-2.722s-.729-2.673-1.648-2.722h3.406c.941,0,1.7-1.218,1.7-2.721S597.2,93.574,596.258,93.574Z" transform="translate(-476.111 -70.806)"/>
    <path id="Path_245" data-name="Path 245" class="cls-1" d="M743.594,230.451H741.16c.941,0,1.7-1.218,1.7-2.721s-.762-2.721-1.7-2.721H721.447c-.941,0-1.7,1.218-1.7,2.721s.763,2.721,1.7,2.721h2.434c-.941,0-1.7,1.218-1.7,2.721s.763,2.721,1.7,2.721h-3.412c-.919.049-1.648,1.253-1.648,2.722s.729,2.673,1.648,2.722h19.719c.919-.049,1.648-1.253,1.648-2.722s-.729-2.673-1.648-2.722h3.406c.941,0,1.7-1.218,1.7-2.721s-.763-2.721-1.7-2.721Z" transform="translate(-656.54 -177.87)"/>
    <path id="Path_246" data-name="Path 246" class="cls-1" d="M585.534,664.4h-1.145c.446,0,.807-.577.807-1.289s-.361-1.289-.807-1.289h-9.345c-.445,0-.807.577-.807,1.289s.361,1.289.807,1.289h1.144c-.445,0-.807.577-.807,1.289s.361,1.289.807,1.289h-1.612c-.445,0-.807.577-.807,1.289s.361,1.289.807,1.289h9.344c.446,0,.807-.577.807-1.289s-.361-1.289-.807-1.289h1.614c.446,0,.807-.577.807-1.289S585.98,664.4,585.534,664.4Z" transform="translate(-463.751 -507.055)"/>
    <path id="Path_247" data-name="Path 247" class="cls-1" d="M449.033,737.476h-.919c.342-.03.61-.481.61-1.028s-.268-1-.61-1.028h-7.45c-.342.03-.61.481-.61,1.028s.268,1,.61,1.028h.919c-.342.03-.61.481-.61,1.028s.268,1,.61,1.028H440.3c-.342.03-.61.481-.61,1.028s.268,1,.61,1.028h7.457c.238.021.464-.17.587-.5a1.573,1.573,0,0,0,0-1.062c-.123-.327-.349-.518-.587-.5h1.287c.238.021.464-.171.587-.5a1.574,1.574,0,0,0,0-1.062c-.123-.327-.349-.518-.587-.5Z" transform="translate(-297.189 -568.983)"/>
    <path id="Path_248" data-name="Path 248" class="cls-1" d="M285.712,610.487h-1.154c.446,0,.807-.577.807-1.289s-.361-1.289-.807-1.289h-9.332c-.446,0-.807.577-.807,1.289s.361,1.289.807,1.289h1.144c-.445,0-.807.577-.807,1.289s.361,1.289.807,1.289h-1.613c-.446,0-.807.577-.807,1.289s.361,1.289.807,1.289H284.1c.445,0,.807-.577.807-1.289s-.361-1.289-.807-1.289h1.614c.446,0,.807-.577.807-1.289S286.158,610.487,285.712,610.487Z" transform="translate(-97.322 -466.377)"/>
    <path id="Path_249" data-name="Path 249" class="cls-1" d="M712.5,742.717h-1.144c.446,0,.807-.577.807-1.289s-.361-1.289-.807-1.289h-9.346c-.446,0-.807.577-.807,1.289s.361,1.289.807,1.289h1.144c-.446,0-.807.577-.807,1.289s.361,1.289.807,1.289h-1.614c-.43.033-.767.6-.767,1.287s.338,1.254.767,1.287h9.349c.3.023.578-.217.731-.625a1.967,1.967,0,0,0,0-1.325c-.153-.408-.434-.648-.731-.625h1.61c.445,0,.807-.577.807-1.289S712.942,742.717,712.5,742.717Z" transform="translate(-618.924 -572.265)"/>
    <path id="Path_250" data-name="Path 250" class="cls-18" d="M773.029,333.693a1.209,1.209,0,0,1,.176-1.118.317.317,0,0,0,.046-.064h0a.649.649,0,0,0,.032-.516c-.061-.165-.183-.246-.3-.2h0a.216.216,0,0,0-.057.037c-.244.206-.546.086-.7-.277a.4.4,0,0,0-.04-.076h0a.2.2,0,0,0-.322-.048.571.571,0,0,0-.124.478h0a.8.8,0,0,0,.023.091,1.209,1.209,0,0,1-.175,1.118.406.406,0,0,0-.048.064h0a.651.651,0,0,0-.03.515c.062.164.183.244.3.2h0a.162.162,0,0,0,.057-.036c.245-.2.546-.083.7.28a.405.405,0,0,0,.038.076h0a.2.2,0,0,0,.324.052.572.572,0,0,0,.124-.482h0A.8.8,0,0,0,773.029,333.693Z" transform="translate(-693.475 -257.373)"/>
    <path id="Path_251" data-name="Path 251" class="cls-18" d="M1089.706,165.013a1.2,1.2,0,0,1,.175-1.118.394.394,0,0,0,.046-.064h0a.648.648,0,0,0,.032-.518c-.062-.165-.185-.246-.3-.2h0a.243.243,0,0,0-.055.037c-.245.206-.547.086-.7-.28a.478.478,0,0,0-.04-.073h0a.2.2,0,0,0-.323-.048.57.57,0,0,0-.124.478h0a.412.412,0,0,0,.023.088,1.219,1.219,0,0,1-.175,1.121.4.4,0,0,0-.048.064h0a.648.648,0,0,0-.03.515c.062.164.183.244.3.2h0a.2.2,0,0,0,.057-.037c.244-.2.545-.083.7.28a.717.717,0,0,0,.04.076h0a.2.2,0,0,0,.324.052.573.573,0,0,0,.124-.482h0a.8.8,0,0,0-.023-.091Z" transform="translate(-1081.08 -122.649)"/>
    <path id="Path_252" data-name="Path 252" class="cls-18" d="M1094.562,618.065a1.208,1.208,0,0,1,.176-1.118.33.33,0,0,0,.046-.064h0a.644.644,0,0,0,.034-.517c-.062-.165-.185-.245-.3-.2h0a.161.161,0,0,0-.057.037c-.245.2-.546.083-.7-.28a.38.38,0,0,0-.038-.076h0a.2.2,0,0,0-.324-.052.572.572,0,0,0-.124.481h0a.772.772,0,0,0,.023.091,1.21,1.21,0,0,1-.176,1.118.294.294,0,0,0-.046.064h0a.65.65,0,0,0-.024.5c.058.157.172.239.284.2h0a.154.154,0,0,0,.057-.034c.244-.206.546-.086.7.277a.391.391,0,0,0,.04.076h0a.2.2,0,0,0,.322.048.572.572,0,0,0,.124-.477h0C1094.574,618.117,1094.569,618.09,1094.562,618.065Z" transform="translate(-1086.865 -471.625)"/>
    <path id="Path_253" data-name="Path 253" class="cls-18" d="M114.4,63.956a1.214,1.214,0,0,1,.175-1.121.312.312,0,0,0,.046-.064h0a.643.643,0,0,0,.034-.516c-.062-.165-.184-.245-.3-.2h0a.215.215,0,0,0-.057.037c-.245.2-.546.084-.7-.28a.518.518,0,0,0-.04-.076h0a.2.2,0,0,0-.322-.048.571.571,0,0,0-.124.478h0a.573.573,0,0,0,.023.091,1.214,1.214,0,0,1-.175,1.121.38.38,0,0,0-.048.061h0a.648.648,0,0,0-.033.518c.062.165.185.246.3.2h0a.215.215,0,0,0,.057-.037c.245-.2.546-.084.7.28a.366.366,0,0,0,.038.073h0a.2.2,0,0,0,.323.052.569.569,0,0,0,.125-.478h0A.571.571,0,0,0,114.4,63.956Z" transform="translate(111.792 -52.378)"/>
    <path id="Path_254" data-name="Path 254" class="cls-18" d="M66.666,33.592a1.209,1.209,0,0,1,.175-1.118.313.313,0,0,0,.046-.064h0a.649.649,0,0,0,.032-.516c-.061-.165-.183-.246-.3-.2h0a.215.215,0,0,0-.057.037c-.244.206-.546.086-.7-.277a.548.548,0,0,0-.038-.076h0a.2.2,0,0,0-.319-.051.563.563,0,0,0-.129.469h0a.624.624,0,0,0,.023.088,1.213,1.213,0,0,1-.175,1.13.313.313,0,0,0-.046.064h0a.639.639,0,0,0-.038.529c.065.169.194.246.313.186h0a.161.161,0,0,0,.057-.037c.245-.2.546-.083.7.28a.4.4,0,0,0,.04.076h0a.2.2,0,0,0,.322.048.571.571,0,0,0,.124-.478h0A.735.735,0,0,0,66.666,33.592Z" transform="translate(168.637 -31.267)"/>
    <path id="Path_255" data-name="Path 255" class="cls-18" d="M447.03,254.135a1.209,1.209,0,0,1,.175-1.118.311.311,0,0,0,.046-.064h0a.649.649,0,0,0,.032-.516c-.061-.165-.183-.246-.3-.2h0a.214.214,0,0,0-.057.037c-.244.206-.546.086-.7-.277a.4.4,0,0,0-.038-.076h0a.2.2,0,0,0-.324-.052.571.571,0,0,0-.124.482h0a.628.628,0,0,0,.023.088,1.214,1.214,0,0,1-.175,1.121.313.313,0,0,0-.046.064h0a.642.642,0,0,0-.034.516c.062.165.184.245.3.2h0a.16.16,0,0,0,.057-.037c.245-.2.546-.083.7.28a.4.4,0,0,0,.04.076h0a.2.2,0,0,0,.322.048.57.57,0,0,0,.124-.478h0A.8.8,0,0,0,447.03,254.135Z" transform="translate(-295.596 -197.429)"/>
    <path id="Path_256" data-name="Path 256" class="cls-18" d="M270.652,371.625a1.209,1.209,0,0,1,.176-1.118.312.312,0,0,0,.046-.064h0a.643.643,0,0,0,.034-.517c-.062-.165-.184-.245-.3-.2h0a.16.16,0,0,0-.057.037c-.245.2-.546.083-.7-.28a.553.553,0,0,0-.038-.076h0a.2.2,0,0,0-.324-.052.572.572,0,0,0-.124.482h0a.807.807,0,0,0,.023.091,1.209,1.209,0,0,1-.175,1.118.316.316,0,0,0-.046.064h0a.643.643,0,0,0-.034.516c.062.165.185.245.3.2h0a.161.161,0,0,0,.057-.036c.245-.2.546-.083.7.28a.538.538,0,0,0,.038.076h0a.2.2,0,0,0,.324.052.571.571,0,0,0,.124-.482h0A.783.783,0,0,0,270.652,371.625Z" transform="translate(-74.258 -285.95)"/>
    <path id="Path_257" data-name="Path 257" class="cls-18" d="M546.05,217.572a1.136,1.136,0,0,1,.255-1.079.27.27,0,0,0,.052-.055h0a.621.621,0,0,0,.072-.508c-.05-.176-.166-.278-.286-.251h0a.15.15,0,0,0-.059.024c-.258.157-.549-.018-.677-.408a.544.544,0,0,0-.034-.082h0c-.079-.143-.208-.187-.317-.108a.522.522,0,0,0-.158.453h0a.829.829,0,0,0,.017.094,1.139,1.139,0,0,1-.257,1.078.329.329,0,0,0-.049.055h0a.629.629,0,0,0-.068.5c.049.174.163.277.281.254h0a.216.216,0,0,0,.059-.024c.257-.158.548.018.675.408a.742.742,0,0,0,.034.082h0c.079.143.208.187.317.108a.522.522,0,0,0,.158-.453h0A.54.54,0,0,0,546.05,217.572Z" transform="translate(-416.572 -169.754)"/>
    <path id="Path_258" data-name="Path 258" class="cls-18" d="M997.91,527.184a1.5,1.5,0,0,1-.419-1.453,1.032,1.032,0,0,0,.015-.134h0a.673.673,0,0,0-.249-.586c-.153-.09-.325-.015-.428.187h0a.712.712,0,0,0-.042.119c-.152.561-.544.849-.91.67a.284.284,0,0,0-.084-.027h0c-.164-.008-.313.153-.369.4a.859.859,0,0,0,.12.686h0a.352.352,0,0,0,.074.067,1.53,1.53,0,0,1,.42,1.453.744.744,0,0,0-.017.134h0a.674.674,0,0,0,.25.59c.154.09.327.014.429-.191h0a.582.582,0,0,0,.04-.119c.152-.561.544-.85.91-.67a.3.3,0,0,0,.084.028h0c.164.008.313-.153.369-.4a.859.859,0,0,0-.12-.686h0A.407.407,0,0,0,997.91,527.184Z" transform="translate(-971.518 -403.402)"/>
    <path id="Path_259" data-name="Path 259" class="cls-18" d="M388.956,565.055a1.529,1.529,0,0,1-.419-1.453.772.772,0,0,0,.017-.131h0a.677.677,0,0,0-.249-.593c-.154-.091-.328-.014-.43.19h0a.834.834,0,0,0-.042.119c-.152.562-.544.851-.91.67a.2.2,0,0,0-.082-.024h0c-.163-.006-.31.154-.367.4a.861.861,0,0,0,.117.683h0a.347.347,0,0,0,.073.067,1.5,1.5,0,0,1,.42,1.453,1.015,1.015,0,0,0-.015.134h0a.673.673,0,0,0,.249.586c.153.09.325.015.428-.187h0a.722.722,0,0,0,.042-.119c.156-.555.544-.841.91-.67a.288.288,0,0,0,.084.027h0c.164.008.313-.153.369-.4a.859.859,0,0,0-.12-.686h0a.361.361,0,0,0-.074-.067Z" transform="translate(-224.475 -431.945)"/>
    <path id="Path_260" data-name="Path 260" class="cls-18" d="M579.311,574.765a1.5,1.5,0,0,1-.419-1.453,1.123,1.123,0,0,0,.017-.134h0a.675.675,0,0,0-.25-.59c-.154-.09-.327-.014-.429.191h0a.713.713,0,0,0-.042.119c-.153.56-.545.847-.91.667a.278.278,0,0,0-.084-.024h0c-.163-.006-.31.154-.367.4a.861.861,0,0,0,.117.683h0a.357.357,0,0,0,.074.067,1.5,1.5,0,0,1,.419,1.453,1.038,1.038,0,0,0-.017.134h0a.674.674,0,0,0,.25.59c.154.091.327.014.429-.191h0a.724.724,0,0,0,.042-.119c.156-.555.544-.841.91-.67a.21.21,0,0,0,.084.027h0c.163.006.31-.154.367-.4a.862.862,0,0,0-.117-.683h0A.357.357,0,0,0,579.311,574.765Z" transform="translate(-456.823 -439.264)"/>
    <ellipse id="Ellipse_81" data-name="Ellipse 81" class="cls-1" cx="3.147" cy="5.027" rx="3.147" ry="5.027" transform="translate(209.206 26.437)"/>
    <ellipse id="Ellipse_82" data-name="Ellipse 82" class="cls-1" cx="3.147" cy="5.027" rx="3.147" ry="5.027" transform="translate(20.726 31.463)"/>
    <ellipse id="Ellipse_83" data-name="Ellipse 83" class="cls-1" cx="1.717" cy="2.742" rx="1.717" ry="2.742" transform="translate(195.759 3.764)"/>
    <ellipse id="Ellipse_84" data-name="Ellipse 84" class="cls-1" cx="1.717" cy="2.742" rx="1.717" ry="2.742" transform="translate(0 67.462)"/>
    <ellipse id="Ellipse_85" data-name="Ellipse 85" class="cls-1" cx="1.717" cy="2.742" rx="1.717" ry="2.742" transform="translate(207.489 175.827)"/>
    <ellipse id="Ellipse_86" data-name="Ellipse 86" class="cls-1" cx="1.717" cy="2.742" rx="1.717" ry="2.742" transform="translate(200.909 188.174)"/>
    <ellipse id="Ellipse_87" data-name="Ellipse 87" class="cls-1" cx="1.717" cy="2.742" rx="1.717" ry="2.742" transform="translate(213.783 195.617)"/>
  </g>
</svg>
