<svg xmlns="http://www.w3.org/2000/svg" xmlns:xlink="http://www.w3.org/1999/xlink" width="257.5" height="190" viewBox="0 0 257.5 190">
  <defs>
    <style>
      .cls-1, .cls-3 {
        fill: #ef4647;
      }

      .cls-1, .cls-7 {
        opacity: 0.1;
      }

      .cls-17, .cls-2 {
        fill: none;
        stroke: #535461;
        stroke-miterlimit: 10;
      }

      .cls-2 {
        stroke-width: 2px;
      }

      .cls-4 {
        fill: url(#linear-gradient);
      }

      .cls-5 {
        fill: #dde1ec;
      }

      .cls-6, .cls-8 {
        fill: #535461;
      }

      .cls-6 {
        opacity: 0.3;
      }

      .cls-9 {
        fill: url(#linear-gradient-2);
      }

      .cls-10 {
        fill: #f8bdc5;
      }

      .cls-11 {
        fill: #3b3b3b;
      }

      .cls-12 {
        opacity: 0.03;
      }

      .cls-13 {
        fill: #5d3e53;
      }

      .cls-14 {
        fill: #85555c;
      }

      .cls-15 {
        fill: #ed677b;
      }

      .cls-16 {
        opacity: 0.05;
      }

      .cls-17 {
        stroke-linecap: round;
      }

      .cls-18 {
        fill: #a8a8a8;
      }

      .cls-19 {
        opacity: 0.2;
      }
    </style>
    <linearGradient id="linear-gradient" x1="0.5" y1="1" x2="0.5" gradientUnits="objectBoundingBox">
      <stop offset="0" stop-color="gray" stop-opacity="0.251"/>
      <stop offset="0.54" stop-color="gray" stop-opacity="0.122"/>
      <stop offset="1" stop-color="gray" stop-opacity="0.102"/>
    </linearGradient>
    <linearGradient id="linear-gradient-2" y2="0" xlink:href="#linear-gradient"/>
  </defs>
  <g id="undraw_time_management_30iu" transform="translate(-0.007 -0.005)">
    <path id="Path_119" data-name="Path 119" class="cls-1" d="M106.938,82.888a8.126,8.126,0,0,0-4.121,2.989c-.931,1.567-.82,3.513-.646,5.326,1.511,15.725,5.49,32.45-1.382,46.694-3.336,6.911-8.915,12.448-13.352,18.724s-7.788,14.112-5.728,21.495c2.516,9.021,11.906,14.023,18.235,20.966,4.143,4.539,7.048,10.055,10.913,14.83s9.162,8.982,15.333,9.263c8.875.406,16.1-7.208,24.8-8.972,8.915-1.806,17.891,2.79,25.119,8.291s13.8,12.166,22.225,15.6c9.3,3.8,19.785,3.215,29.577,5.5,8.915,2.079,17.121,6.5,25.971,8.857s19.223,2.214,26.08-3.806c8.937-7.873,8.234-21.9,13.941-32.309,5.3-9.676,15.68-15.452,22.665-24.006,12.57-15.4,12.159-38.927,1.486-55.671s-30.005-26.882-49.773-29.522c-8.915-1.188-18.094-1.026-26.665-3.73-22.94-7.233-36.592-33.148-60.013-38.541-14.887-3.422-29.366,2.5-42.047,9.8C128.548,80.991,118.393,78.167,106.938,82.888Z" transform="translate(-81.08 -63.86)"/>
    <path id="Path_120" data-name="Path 120" class="cls-2" d="M178.735,347.69s-8.454,7.978-17.527,8.216a17.608,17.608,0,0,0-10.495,3.733,29.611,29.611,0,0,0-3.923,3.733" transform="translate(-130.509 -277.902)"/>
    <path id="Path_121" data-name="Path 121" class="cls-3" d="M119.132,410.752c1.219-.619,5.87-.208,5.87-.208s-2.413,4-3.631,4.619a2.477,2.477,0,1,1-2.229-4.411Z" transform="translate(-108.572 -325.165)"/>
    <path id="Path_122" data-name="Path 122" class="cls-3" d="M135.488,383.226c1.36.144,5.041,3.017,5.041,3.017s-4.211,2.046-5.558,1.9a2.477,2.477,0,0,1,.518-4.922Z" transform="translate(-120.032 -304.664)"/>
    <path id="Path_123" data-name="Path 123" class="cls-3" d="M178.645,358.967c1.1.81,2.829,5.15,2.829,5.15s-4.659-.354-5.759-1.162a2.477,2.477,0,0,1,2.93-3.988Z" transform="translate(-151.576 -286.063)"/>
    <path id="Path_124" data-name="Path 124" class="cls-3" d="M218.492,349.839c1.221.612,3.658,4.6,3.658,4.6s-4.652.438-5.873-.173a2.477,2.477,0,1,1,2.214-4.424Z" transform="translate(-181.667 -279.249)"/>
    <path id="Path_125" data-name="Path 125" class="cls-3" d="M159.454,395.943c.406-1.305-.783-5.823-.783-5.823s-3.537,3.052-3.943,4.357a2.477,2.477,0,1,0,4.726,1.466Z" transform="translate(-136.368 -309.874)"/>
    <path id="Path_126" data-name="Path 126" class="cls-3" d="M205.159,385.84c0-1.367-2.489-5.32-2.489-5.32s-2.462,3.963-2.46,5.335a2.477,2.477,0,1,0,4.954-.015Z" transform="translate(-170.697 -302.635)"/>
    <path id="Path_127" data-name="Path 127" class="cls-3" d="M248.4,367.435c.228-1.347-1.555-5.665-1.555-5.665s-3.1,3.5-3.324,4.845a2.477,2.477,0,0,0,4.88.822Z" transform="translate(-203.27 -288.496)"/>
    <path id="Path_128" data-name="Path 128" class="cls-2" d="M244.924,184.707s-10.183-5.593-13.209-14.161a17.609,17.609,0,0,0-6.779-8.84,29.617,29.617,0,0,0-4.766-2.576" transform="translate(-185.713 -135.529)"/>
    <path id="Path_129" data-name="Path 129" class="cls-3" d="M199.777,135.415c.964.968,2,5.524,2,5.524s-4.548-1.065-5.511-2.036a2.477,2.477,0,0,1,3.51-3.488Z" transform="translate(-167.252 -117.202)"/>
    <path id="Path_130" data-name="Path 130" class="cls-3" d="M230.68,141.1c.282,1.338-1.32,5.724-1.32,5.724s-3.237-3.366-3.52-4.706a2.477,2.477,0,1,1,4.842-1.02Z" transform="translate(-189.919 -120.397)"/>
    <path id="Path_131" data-name="Path 131" class="cls-3" d="M267.359,175.094c-.431,1.3-4.03,4.275-4.03,4.275s-1.095-4.54-.664-5.838a2.479,2.479,0,1,1,4.706,1.563Z" transform="translate(-217.607 -145.085)"/>
    <path id="Path_132" data-name="Path 132" class="cls-3" d="M288.093,210.531c-.206,1.35-3.25,4.894-3.25,4.894s-1.848-4.29-1.642-5.64a2.477,2.477,0,1,1,4.892.743Z" transform="translate(-233.133 -172.215)"/>
    <path id="Path_133" data-name="Path 133" class="cls-3" d="M218.55,171.039c1.367-.015,5.3-2.536,5.3-2.536s-3.99-2.427-5.358-2.413a2.477,2.477,0,0,0,.057,4.954Z" transform="translate(-182.609 -140.765)"/>
    <path id="Path_134" data-name="Path 134" class="cls-3" d="M241.2,211.634c1.3-.424,4.3-4.005,4.3-4.005s-4.535-1.122-5.833-.7a2.477,2.477,0,1,0,1.536,4.706Z" transform="translate(-199.025 -171.663)"/>
    <path id="Path_135" data-name="Path 135" class="cls-3" d="M272.194,246.96c1.352-.2,4.914-3.22,4.914-3.22s-4.28-1.873-5.63-1.674a2.477,2.477,0,1,0,.718,4.9Z" transform="translate(-222.652 -198.217)"/>
    <ellipse id="Ellipse_75" data-name="Ellipse 75" class="cls-4" cx="89.665" cy="89.018" rx="89.665" ry="89.018" transform="translate(39.558 5.554)"/>
    <ellipse id="Ellipse_76" data-name="Ellipse 76" class="cls-3" cx="88.178" cy="87.532" rx="88.178" ry="87.532" transform="translate(41.075 7.04)"/>
    <ellipse id="Ellipse_77" data-name="Ellipse 77" class="cls-5" cx="70.097" cy="69.45" rx="70.097" ry="69.45" transform="translate(59.157 25.122)"/>
    <rect id="Rectangle_143" data-name="Rectangle 143" class="cls-6" width="3.963" height="61.923" transform="translate(127.273 37.132)"/>
    <g id="Group_446" data-name="Group 446" class="cls-7" transform="translate(91.64 74.601)">
      <rect id="Rectangle_144" data-name="Rectangle 144" width="55.978" height="4.954" transform="translate(41.82 18.534)"/>
      <rect id="Rectangle_145" data-name="Rectangle 145" width="4.954" height="39.76" transform="translate(0 4.389) rotate(-62.36)"/>
      <circle id="Ellipse_78" data-name="Ellipse 78" cx="7.431" cy="7.431" r="7.431" transform="translate(30.179 13.58)"/>
    </g>
    <rect id="Rectangle_146" data-name="Rectangle 146" class="cls-8" width="55.978" height="4.954" transform="translate(133.455 92.098)"/>
    <rect id="Rectangle_147" data-name="Rectangle 147" class="cls-8" width="39.76" height="4.954" transform="translate(93.966 73.643) rotate(27.64)"/>
    <circle id="Ellipse_79" data-name="Ellipse 79" class="cls-8" cx="7.431" cy="7.431" r="7.431" transform="translate(121.823 87.144)"/>
    <g id="Group_447" data-name="Group 447" class="cls-7" transform="translate(59.154 25.122)">
      <path id="Path_136" data-name="Path 136" d="M325.449,243.788a70.1,70.1,0,0,1,126.115-42.147,70.1,70.1,0,1,0-117.478,75.873A69.777,69.777,0,0,1,325.449,243.788Z" transform="translate(-320 -165.27)"/>
    </g>
    <path id="Path_137" data-name="Path 137" class="cls-9" d="M689.538,194.327c-.832-.8-7.837,4.458-7.837,4.458s-2.494.456-1.9,2.167-2.613,11.3-2.613,11.3l-1.305-1.825a7.835,7.835,0,0,0-1.038-4.607c-.047-.077-.094-.151-.141-.22l.228-.079c-.087-1.169-1.957-2.95-2.95-3.822v-.376c.062-1.4.622-2.871,0-4.136-.7-1.444-2.762-2.17-2.935-3.755-.1-.946.535-1.8.817-2.712.674-2.18-.726-4.4-2.063-6.281a8.79,8.79,0,0,0-1.637-1.887,7.947,7.947,0,0,0-1.967-1.05,50.3,50.3,0,0,0-5.984-1.734,9.531,9.531,0,0,0-5.7-.114,2.8,2.8,0,0,0-1.238.711,7.667,7.667,0,0,0-.837,1.9,6.77,6.77,0,0,1-2.507,2.256,3.6,3.6,0,0,0-1.895,2.648c0,1.583,1.808,2.578,2.413,4.052.565,1.372,0,2.9-.315,4.347A2.922,2.922,0,0,0,648.1,197a3.082,3.082,0,0,0,.555.966c.374.5.775.956,1.174,1.427l-.183.072c-3.324-.342-5.462,3.879-5.462,3.879.154.032.3.069.443.111l-.141.183a18.017,18.017,0,0,0-2.44,4.268l-2.725,3.651s-.594-9.13.832-11.183-1.305-3.309-1.305-3.309-5.945-6.618-6.769-6.049,2.019,7.76,4.513,8.9a10.962,10.962,0,0,1-.248,3.765c-.3.939-1.9,10.841-1.9,10.841s-1.424,8.33,5.107,4.211c4.243-2.67,6.985-7.267,8.382-10.155q.146-.3.275-.582a6.965,6.965,0,0,1,.131.929l.248,9.544a14.485,14.485,0,0,1-1.5,6.816l-2.91,5.9.324.1-.2.282c-1.917,2.821-5.177,9.165,1.533,12.4l8.917,1.142-.476,2.281s-3.681,6.96-4.751,11.753a35.22,35.22,0,0,1-3.089,8.444l.275.146c-.057.064-.116.131-.173.2a4.3,4.3,0,0,0-1.03,2.16l-1.209,1.714s-.476,7.074.475,8.788c.52.936,2.247,1.531,3.715,1.878a2.447,2.447,0,0,0,2.782-3.589l-.015-.025h-.022c-.248-1.152-1.006-4.726-.758-6.083.069-.386.134-.77.166-1.162a4.1,4.1,0,0,1,.461-1.469c.04-.077.082-.151.124-.225l.129.054c.4.171.793.332,1.167.473-.58.528-.991,1.62-.5,3.866,0,0,.047,5.62.476,6.5s5.224,2.053,6.056,1.142-.535-4.052-.535-4.052l-.042.03c-.275-1.821-.614-5.08.22-6.363.337-.518.664-1.053.956-1.553l.181-.31h0c1.551.773,3.19,1.355,4.087.951,0,0,3.919-9.13,3.681-10.269s6.056-14.037,6.056-14.037,5.343-5.945-1.186-10.041c-2.073-1.305-3.584-2.182-4.681-2.774l-.919-4.805a17.566,17.566,0,0,1,.248-7.594l.991-3.78h0l.082-.322s2.494-5.135,2.375-7.532a1.736,1.736,0,0,1,.062-.552q.041.171.089.357a46.037,46.037,0,0,0,2.581,7.272c1.895,4.275,4.706,3.936,6.247,3.329a2.133,2.133,0,0,0,1.315-1.541c.555-2.66,2.078-10.113,2.175-12.172a34.629,34.629,0,0,1,.594-4.793C687.046,199.12,690.37,195.127,689.538,194.327Z" transform="translate(-495.529 -150.673)"/>
    <path id="Path_138" data-name="Path 138" class="cls-10" d="M724.157,531.526s-.523,1.048-1.238,2.306c-.28.5-.592,1.028-.911,1.541-1.132,1.811,0,7.579,0,7.579l-2.477.339-2.477-1.238-.453-4.186v-3.062l2.824-3.158,1.239-1.367Z" transform="translate(-559.221 -415.586)"/>
    <g id="Group_448" data-name="Group 448" class="cls-7" transform="translate(160.197 114.736)">
      <path id="Path_139" data-name="Path 139" d="M732.718,531.526s-.523,1.048-1.239,2.306a30.7,30.7,0,0,1-3.165-1.947l-.218-.154-.116-.084,1.239-1.367Z" transform="translate(-727.98 -530.28)"/>
    </g>
    <path id="Path_140" data-name="Path 140" class="cls-11" d="M734.822,401.073s-6,12.783-5.769,13.915-3.507,10.183-3.507,10.183c-.852.4-2.418-.176-3.894-.941a30.518,30.518,0,0,1-3.22-1.982l-.218-.154-.131-.094,9.843-27.266-8.709-6.388-.644-.473L714.68,385l11.889,2.15s.414-.052,2.6,1.172c1.05.587,2.509,1.466,4.525,2.789C739.91,395.19,734.822,401.073,734.822,401.073Z" transform="translate(-557.779 -306.134)"/>
    <g id="Group_449" data-name="Group 449" class="cls-12" transform="translate(156.901 78.866)">
      <path id="Path_141" data-name="Path 141" d="M734.822,401.073s-1.114,2.375-2.487,5.444c-1.526,3.411-3.412,7.827-3.282,8.471.228,1.132-3.507,10.183-3.507,10.183-.852.4-2.418-.176-3.894-.941a30.518,30.518,0,0,1-3.22-1.982l-.218-.154-.131-.094,9.843-27.266-8.709-6.388-.644-.473L714.68,385l11.889,2.15s.414-.052,2.6,1.172c1.05.587,2.509,1.466,4.525,2.789C739.91,395.19,734.822,401.073,734.822,401.073Z" transform="translate(-714.68 -385)"/>
    </g>
    <path id="Path_142" data-name="Path 142" class="cls-13" d="M715.959,544.4s-2.943-.453-1.922,4.3c0,0,.045,5.573.453,6.44s4.979,2.036,5.769,1.132-.51-4.015-.51-4.015-3.337,2.432-4.243-.171S715.959,544.4,715.959,544.4Z" transform="translate(-557.131 -426.225)"/>
    <path id="Path_143" data-name="Path 143" class="cls-10" d="M693.607,533.929a3.566,3.566,0,0,0-.77,1.07,4.192,4.192,0,0,0-.438,1.456c-.03.386-.092.77-.156,1.152-.282,1.612.8,6.391.8,6.391l-4.3.679-1.583-1.7-.339-3.733a13.529,13.529,0,0,0,.679-3.963,4.153,4.153,0,0,1,.991-2.477,6.815,6.815,0,0,1,1.147-1.137S694.513,533.136,693.607,533.929Z" transform="translate(-536.815 -416.634)"/>
    <g id="Group_450" data-name="Group 450" class="cls-7" transform="translate(151.684 115.074)">
      <path id="Path_144" data-name="Path 144" d="M698.707,533.914a3.566,3.566,0,0,0-.77,1.07c-1.761-.795-3.611-1.8-4.285-2.17l-.052-.027a6.815,6.815,0,0,1,1.147-1.137S699.614,533.121,698.707,533.914Z" transform="translate(-693.6 -531.65)"/>
    </g>
    <path id="Path_145" data-name="Path 145" class="cls-11" d="M698.947,397.679s-2.826,5.318-4.639,9.729c-1.189,2.9-3.646,9.8-5.2,14.193l-.228.649c-.684,1.944-1.139,3.26-1.139,3.26a2.948,2.948,0,0,1-.889-.131c-.267-.072-.567-.168-.887-.287l-.359-.136c-.357-.139-.743-.3-1.112-.468-1.8-.8-3.715-1.848-4.411-2.229l-.263-.146a35.782,35.782,0,0,0,2.95-8.379c1.018-4.751,4.525-11.642,4.525-11.642l.453-2.264-8.486-1.132c-6.393-3.2-3.287-9.494-1.461-12.29a16.518,16.518,0,0,1,1.008-1.4l6.789,1.486s1.07.342,3.448,1.395l1.092.5c1.333.612,2.972,1.4,4.954,2.41C701.773,394.165,698.947,397.679,698.947,397.679Z" transform="translate(-528.24 -306.135)"/>
    <path id="Path_146" data-name="Path 146" class="cls-13" d="M691.274,553.431a2.4,2.4,0,0,1-2.65,3.557c-1.39-.344-3.037-.934-3.532-1.863-.9-1.7-.453-8.711-.453-8.711l1.189-1.754s-.622,7.75.849,8.422,4.582.315,4.582.315Z" transform="translate(-535.09 -426.427)"/>
    <path id="Path_147" data-name="Path 147" class="cls-14" d="M697.86,181.688a2.645,2.645,0,0,0-1.189.706,8.162,8.162,0,0,0-.8,1.885,6.493,6.493,0,0,1-2.388,2.229,3.548,3.548,0,0,0-1.806,2.626c0,1.57,1.734,2.556,2.3,4.015.537,1.362,0,2.876-.3,4.31a3.01,3.01,0,0,0-.035,1.422,3.089,3.089,0,0,0,.53.959c1.092,1.486,2.45,2.8,3.18,4.5a13.92,13.92,0,0,1,.854,4.1,20.6,20.6,0,0,1,.04,6.031.61.61,0,0,0,0,.364.564.564,0,0,0,.29.248,5.945,5.945,0,0,0,8.047-2.972c.5-1.122.686-2.477,1.667-3.205a.835.835,0,0,1,.4-.181,1.167,1.167,0,0,1,.644.215,6.343,6.343,0,0,0,4.235.426,3.938,3.938,0,0,0,2.3-1.144c1.117-1.328.5-3.312.57-5.043.06-1.385.592-2.846,0-4.1-.669-1.432-2.633-2.15-2.8-3.715-.1-.936.51-1.786.78-2.687.641-2.162-.691-4.367-1.964-6.227a8.623,8.623,0,0,0-1.558-1.87,7.476,7.476,0,0,0-1.872-1.04,45.769,45.769,0,0,0-5.7-1.717A8.623,8.623,0,0,0,697.86,181.688Z" transform="translate(-540.475 -152.449)"/>
    <path id="Path_148" data-name="Path 148" class="cls-10" d="M732.067,253.116H725.5V242.48a19.81,19.81,0,0,0,.342-3.1v-1.065a5.476,5.476,0,0,0-1.013-3.307c-1.811-2.036,5.883-1.7,5.883-1.7a19.144,19.144,0,0,0,.916,2.74,16.658,16.658,0,0,0,2.2,3.881,8.981,8.981,0,0,0,2.99,2.544C741.343,244.744,732.067,253.116,732.067,253.116Z" transform="translate(-565.208 -191.64)"/>
    <g id="Group_451" data-name="Group 451" class="cls-7" transform="translate(159.342 41.679)">
      <path id="Path_149" data-name="Path 149" d="M731.6,236.055a6.007,6.007,0,0,1-5.786,2.264,5.476,5.476,0,0,0-1.013-3.307c-1.811-2.036,5.883-1.7,5.883-1.7A19.145,19.145,0,0,0,731.6,236.055Z" transform="translate(-724.526 -233.294)"/>
    </g>
    <circle id="Ellipse_80" data-name="Ellipse 80" class="cls-10" cx="5.997" cy="5.997" r="5.997" transform="translate(155.657 34.504)"/>
    <path id="Path_150" data-name="Path 150" class="cls-10" d="M795.5,248.377a35.648,35.648,0,0,0-.565,4.751c-.092,2.039-1.543,9.43-2.073,12.068a2.093,2.093,0,0,1-1.253,1.528c-1.471.6-4.146.939-5.945-3.3a46.922,46.922,0,0,1-2.46-7.208,19.5,19.5,0,0,1-.5-2.522l3.963-2.15a4.885,4.885,0,0,1,.936,1.2,8.034,8.034,0,0,1,.991,4.567l1.239,1.811s3.054-9.5,2.477-11.2,1.811-2.15,1.811-2.15,6.675-5.2,7.468-4.411S799.234,246.113,795.5,248.377Z" transform="translate(-608.962 -197.675)"/>
    <path id="Path_151" data-name="Path 151" class="cls-10" d="M653.695,243.084a26.772,26.772,0,0,1-1.065,2.6c-1.333,2.866-3.943,7.431-7.986,10.071-6.222,4.072-4.865-4.186-4.865-4.186s1.523-9.818,1.811-10.747a11.744,11.744,0,0,0,.225-3.733c-2.375-1.132-5.09-8.258-4.3-8.825s6.44,6,6.44,6,2.6,1.238,1.239,3.282-.793,11.087-.793,11.087l2.618-3.614a18.059,18.059,0,0,1,2.326-4.231c.5-.676.842-1.085.842-1.085Z" transform="translate(-499.617 -187.837)"/>
    <g id="Group_452" data-name="Group 452" class="cls-7" transform="translate(173.745 53.835)">
      <path id="Path_152" data-name="Path 152" d="M787.6,283.914c-.832.307-4.055,1.607-4.411,3.468a19.485,19.485,0,0,1-.5-2.521l3.963-2.15A4.882,4.882,0,0,1,787.6,283.914Z" transform="translate(-782.69 -282.71)"/>
    </g>
    <g id="Group_453" data-name="Group 453" class="cls-7" transform="translate(149.728 51.816)">
      <path id="Path_153" data-name="Path 153" d="M690.049,277.9a26.754,26.754,0,0,1-1.065,2.6c-.154-1.12-.785-3.983-3.284-4.907.5-.676.842-1.085.842-1.085Z" transform="translate(-685.7 -274.51)"/>
    </g>
    <g id="Group_454" data-name="Group 454" class="cls-7" transform="translate(160.295 47.711)">
      <path id="Path_154" data-name="Path 154" d="M734.944,271.612H728.38V260.976a19.789,19.789,0,0,0,.342-3.1,4.081,4.081,0,0,1,1.016,3.322l3.507,7.926,1.7-7.007-.565-.9,2.328-2.769a8.979,8.979,0,0,0,2.99,2.544C744.22,263.24,734.944,271.612,734.944,271.612Z" transform="translate(-728.38 -257.88)"/>
    </g>
    <g id="Group_455" data-name="Group 455" class="cls-7" transform="translate(149.556 78.998)">
      <path id="Path_155" data-name="Path 155" d="M706.961,388.963s-5.142-.409-9.6-.6l-.448-.02c-.634-.025-1.238-.045-1.83-.059A41,41,0,0,1,685.02,386.4a16.523,16.523,0,0,1,1.011-1.4l6.789,1.486s1.07.342,3.448,1.394l-3.9-2.881,11.889,2.15s.414-.052,2.6,1.172Z" transform="translate(-685.02 -385)"/>
    </g>
    <path id="Path_156" data-name="Path 156" class="cls-15" d="M701.955,262.53l-.565-.9,2.512-3s5.179,2.539,6.537,1.982c0,0,3.282,2.725,3.393,4.3,0,0-4.751,1.583-4.639,3.963s-2.254,7.465-2.254,7.465l-.991,4.067a18.1,18.1,0,0,0-.248,7.53l.9,5.036s-7.129-.565-11.889-.679a41.234,41.234,0,0,1-10.183-1.922l2.777-5.843a14.861,14.861,0,0,0,1.432-6.757l-.248-9.459s-.225-4.751-3.963-5.543c0,0,2.036-4.186,5.2-3.847,0,0,4.612-1.925,5.982-.624a4.075,4.075,0,0,1,1.033,3.339l3.507,7.926Z" transform="translate(-535.096 -210.186)"/>
    <g id="Group_456" data-name="Group 456" class="cls-7" transform="translate(155.648 31.886)">
      <path id="Path_157" data-name="Path 157" d="M711.292,200.9c.909,0,1.622-.964,2.531-.914a2.579,2.579,0,0,1,1.263.594,15.418,15.418,0,0,0,4.833,2.229,4.215,4.215,0,0,0,2.056.149,1.753,1.753,0,0,0,1.382-1.385,2.361,2.361,0,0,0-.119-.9,11.114,11.114,0,0,0-4.84-6.388,3.81,3.81,0,0,0-3.133-.656,6.213,6.213,0,0,0-2.229,1.932,8.468,8.468,0,0,1-1.734,1.407c-.5.3-1.238.5-1.523,1.045C709.241,199.041,710.085,200.891,711.292,200.9Z" transform="translate(-709.613 -193.5)"/>
    </g>
    <path id="Path_158" data-name="Path 158" class="cls-14" d="M711.292,199.991c.909,0,1.622-.964,2.531-.914a2.578,2.578,0,0,1,1.263.594,15.418,15.418,0,0,0,4.833,2.229,4.215,4.215,0,0,0,2.056.149,1.753,1.753,0,0,0,1.382-1.385,2.361,2.361,0,0,0-.119-.9,11.114,11.114,0,0,0-4.84-6.388,3.81,3.81,0,0,0-3.133-.656,6.213,6.213,0,0,0-2.229,1.932,8.472,8.472,0,0,1-1.734,1.407c-.5.3-1.238.5-1.523,1.045C709.241,198.141,710.085,199.979,711.292,199.991Z" transform="translate(-553.965 -160.928)"/>
    <path id="Path_159" data-name="Path 159" class="cls-16" d="M705.32,326.79s5.543,2.036,9.165.453l1.811.114s3.01,2.11,6.192,1.167" transform="translate(-550.736 -262.106)"/>
    <path id="Path_160" data-name="Path 160" class="cls-16" d="M809.531,313.09s-.9,2.15-.453,2.829" transform="translate(-628.702 -251.778)"/>
    <path id="Path_161" data-name="Path 161" class="cls-16" d="M665.58,310.35s.453,2.15,0,2.829" transform="translate(-520.834 -249.712)"/>
    <path id="Path_162" data-name="Path 162" class="cls-3" d="M1000.24,508.14a24.744,24.744,0,0,0-4.513,25.74c5.85,15.377-10.027,40.948-10.027,40.948s.171-.025.5-.079a30.171,30.171,0,0,0,20.023-46.182C1001.807,521.842,998.2,513.956,1000.24,508.14Z" transform="translate(-761.69 -399.385)"/>
    <path id="Path_163" data-name="Path 163" class="cls-1" d="M1000.24,508.84a24.745,24.745,0,0,0-4.513,25.74c5.85,15.377-10.027,40.946-10.027,40.946s.171-.025.5-.079a30.171,30.171,0,0,0,20.023-46.182C1001.807,522.542,998.2,514.656,1000.24,508.84Z" transform="translate(-761.69 -399.912)"/>
    <path id="Path_164" data-name="Path 164" class="cls-17" d="M1000.232,508.14s-5.851,12.669,0,23.005.991,39.343-14.542,43.51" transform="translate(-761.683 -399.212)"/>
    <path id="Path_165" data-name="Path 165" class="cls-3" d="M1010.648,676.967s-11.825-1.882-12.9,8.714S975,697.746,975,697.746l.406.27c17.883,11.741,34.982,7.478,32.4-8.112C1006.858,684.11,1006.938,678.29,1010.648,676.967Z" transform="translate(-753.641 -526.298)"/>
    <path id="Path_166" data-name="Path 166" class="cls-17" d="M1010.678,677.36s-9.179,2.014-8.422,10.361-13.623,18.351-27.216,10.42" transform="translate(-753.671 -526.691)"/>
    <path id="Path_167" data-name="Path 167" class="cls-18" d="M965.862,735.035s-9.313-1.863-11.8-4.347-13.66-6.829-14.9-3.715-16.764,13.66-6.21,15.523,24.836,2.477,27.94,1.238S965.862,735.035,965.862,735.035Z" transform="translate(-719.258 -563.2)"/>
    <path id="Path_168" data-name="Path 168" class="cls-19" d="M932.961,768.906c10.556,1.863,24.836,2.477,27.94,1.238,2.365-.946,4.008-5.489,4.657-7.6l.31.064S964,770.055,960.9,771.3s-17.385.622-27.94-1.239c-3.047-.537-3.919-1.8-3.589-3.4C929.629,767.7,930.692,768.5,932.961,768.906Z" transform="translate(-719.265 -590.772)"/>
  </g>
</svg>
